<?xml version="1.0" encoding="UTF-8" standalone="no"?>
<!-- Created with Inkscape (http://www.inkscape.org/) -->

<svg
   xmlns:dc="http://purl.org/dc/elements/1.1/"
   xmlns:cc="http://creativecommons.org/ns#"
   xmlns:rdf="http://www.w3.org/1999/02/22-rdf-syntax-ns#"
   xmlns:svg="http://www.w3.org/2000/svg"
   xmlns="http://www.w3.org/2000/svg"
   xmlns:sodipodi="http://sodipodi.sourceforge.net/DTD/sodipodi-0.dtd"
   xmlns:inkscape="http://www.inkscape.org/namespaces/inkscape"
   width="2232.2834"
   height="885.82672"
   id="svg2"
   version="1.1"
   inkscape:version="0.48.2 r9819"
   sodipodi:docname="SoCraMOB.png"
   inkscape:export-filename="/Users/marc/Dropbox/Work/Logos/SoCraTes/Softwerkskammer.png"
   inkscape:export-xdpi="96.073471"
   inkscape:export-ydpi="96.073471">
  <defs
     id="defs4">
    <inkscape:path-effect
       effect="sketch"
       id="path-effect3749"
       is_visible="true"
       nbiter_approxstrokes="5"
       strokelength="99"
       strokelength_rdm="0.3;1"
       strokeoverlap="0.3"
       strokeoverlap_rdm="0.3;1"
       ends_tolerance="0.1;1"
       parallel_offset="5;1"
       tremble_size="5;1"
       tremble_frequency="1"
       nbtangents="5"
       tgt_places_rdmness="1;1"
       tgtscale="10"
       tgtlength="100"
       tgtlength_rdm="0.3;1" />
    <inkscape:path-effect
       effect="sketch"
       id="path-effect3747"
       is_visible="true"
       nbiter_approxstrokes="5"
       strokelength="100"
       strokelength_rdm="0.3;1"
       strokeoverlap="0.3"
       strokeoverlap_rdm="0.3;1"
       ends_tolerance="0.1;1"
       parallel_offset="5;1"
       tremble_size="5;1"
       tremble_frequency="1"
       nbtangents="5"
       tgt_places_rdmness="1;1"
       tgtscale="10"
       tgtlength="100"
       tgtlength_rdm="0.3;1" />
    <inkscape:path-effect
       effect="sketch"
       id="path-effect3743"
       is_visible="true"
       nbiter_approxstrokes="5"
       strokelength="100"
       strokelength_rdm="0.3;1"
       strokeoverlap="0.3"
       strokeoverlap_rdm="0.3;1"
       ends_tolerance="0.1;1"
       parallel_offset="5;1"
       tremble_size="5;1"
       tremble_frequency="1"
       nbtangents="5"
       tgt_places_rdmness="1;1"
       tgtscale="10"
       tgtlength="100"
       tgtlength_rdm="0.3;1" />
    <inkscape:path-effect
       tgtlength_rdm="0.3;1"
       tgtlength="100"
       tgtscale="10"
       tgt_places_rdmness="1;1"
       nbtangents="5"
       tremble_frequency="1"
       tremble_size="5;1"
       parallel_offset="5;1"
       ends_tolerance="0.1;1"
       strokeoverlap_rdm="0.3;1"
       strokeoverlap="0.3"
       strokelength_rdm="0.3;1"
       strokelength="100"
       nbiter_approxstrokes="5"
       is_visible="true"
       id="path-effect3741"
       effect="sketch" />
    <inkscape:path-effect
       effect="sketch"
       id="path-effect3704"
       is_visible="true"
       nbiter_approxstrokes="5"
       strokelength="100"
       strokelength_rdm="0.3;1"
       strokeoverlap="0.3"
       strokeoverlap_rdm="0.3;1"
       ends_tolerance="0.1;1"
       parallel_offset="5;1"
       tremble_size="5;1"
       tremble_frequency="1"
       nbtangents="5"
       tgt_places_rdmness="1;1"
       tgtscale="10"
       tgtlength="100"
       tgtlength_rdm="0.3;1" />
    <inkscape:path-effect
       effect="sketch"
       id="path-effect3702"
       is_visible="true"
       nbiter_approxstrokes="5"
       strokelength="100"
       strokelength_rdm="0.3;1"
       strokeoverlap="0.3"
       strokeoverlap_rdm="0.3;1"
       ends_tolerance="0.1;1"
       parallel_offset="5;1"
       tremble_size="5;1"
       tremble_frequency="1"
       nbtangents="5"
       tgt_places_rdmness="1;1"
       tgtscale="10"
       tgtlength="100"
       tgtlength_rdm="0.3;1" />
    <inkscape:path-effect
       effect="sketch"
       id="path-effect5258"
       is_visible="true"
       nbiter_approxstrokes="5"
       strokelength="100"
       strokelength_rdm="0.3;1"
       strokeoverlap="0.3"
       strokeoverlap_rdm="0.3;1"
       ends_tolerance="0.1;1"
       parallel_offset="3;1"
       tremble_size="4;1896651304"
       tremble_frequency="1"
       nbtangents="0"
       tgt_places_rdmness="1;1"
       tgtscale="10"
       tgtlength="100"
       tgtlength_rdm="0.3;1" />
    <inkscape:path-effect
       effect="sketch"
       id="path-effect5254"
       is_visible="true"
       nbiter_approxstrokes="5"
       strokelength="100"
       strokelength_rdm="0.3;1"
       strokeoverlap="0.3"
       strokeoverlap_rdm="0.3;1"
       ends_tolerance="0.1;1"
       parallel_offset="3;1"
       tremble_size="4;1"
       tremble_frequency="1"
       nbtangents="0"
       tgt_places_rdmness="1;1"
       tgtscale="10"
       tgtlength="100"
       tgtlength_rdm="0.3;1" />
    <marker
       inkscape:stockid="Arrow2Mend"
       orient="auto"
       refY="0"
       refX="0"
       id="Arrow2Mend"
       style="overflow:visible">
      <path
         id="path4082"
         style="font-size:12px;fill-rule:evenodd;stroke-width:0.625;stroke-linejoin:round"
         d="M 8.7185878,4.0337352 -2.2072895,0.01601326 8.7185884,-4.0017078 c -1.7454984,2.3720609 -1.7354408,5.6174519 -6e-7,8.035443 z"
         transform="scale(-0.6,-0.6)"
         inkscape:connector-curvature="0" />
    </marker>
    <marker
       inkscape:stockid="Arrow1Mend"
       orient="auto"
       refY="0"
       refX="0"
       id="Arrow1Mend"
       style="overflow:visible">
      <path
         id="path4064"
         d="M 0,0 5,-5 -12.5,0 5,5 0,0 z"
         style="fill-rule:evenodd;stroke:#000000;stroke-width:1pt;marker-start:none"
         transform="matrix(-0.4,0,0,-0.4,-4,0)"
         inkscape:connector-curvature="0" />
    </marker>
    <marker
       inkscape:stockid="Arrow1Lend"
       orient="auto"
       refY="0"
       refX="0"
       id="Arrow1Lend"
       style="overflow:visible">
      <path
         id="path4058"
         d="M 0,0 5,-5 -12.5,0 5,5 0,0 z"
         style="fill-rule:evenodd;stroke:#000000;stroke-width:1pt;marker-start:none"
         transform="matrix(-0.8,0,0,-0.8,-10,0)"
         inkscape:connector-curvature="0" />
    </marker>
    <inkscape:path-effect
       effect="sketch"
       id="path-effect3861"
       is_visible="true"
       nbiter_approxstrokes="5"
       strokelength="100"
       strokelength_rdm="0.1;2026920370"
       strokeoverlap="0.3"
       strokeoverlap_rdm="0.3;1"
       ends_tolerance="0.1;1"
       parallel_offset="3;294185633"
       tremble_size="3;2112635550"
       tremble_frequency="1"
       nbtangents="0"
       tgt_places_rdmness="1;1"
       tgtscale="10"
       tgtlength="100"
       tgtlength_rdm="0.3;1" />
    <inkscape:path-effect
       tgtlength_rdm="0.3;1"
       tgtlength="100"
       tgtscale="10"
       tgt_places_rdmness="1;1"
       nbtangents="0"
       tremble_frequency="1"
       tremble_size="5;568508735"
       parallel_offset="5;1"
       ends_tolerance="0.1;1"
       strokeoverlap_rdm="0.3;1"
       strokeoverlap="0.3"
       strokelength_rdm="0.3;1"
       strokelength="100"
       nbiter_approxstrokes="5"
       is_visible="true"
       id="path-effect3857"
       effect="sketch" />
    <inkscape:path-effect
       effect="sketch"
       id="path-effect3853"
       is_visible="true"
       nbiter_approxstrokes="5"
       strokelength="100"
       strokelength_rdm="0.3;1"
       strokeoverlap="0.3"
       strokeoverlap_rdm="0.3;1"
       ends_tolerance="0.1;1"
       parallel_offset="5;1"
       tremble_size="5;1"
       tremble_frequency="1"
       nbtangents="0"
       tgt_places_rdmness="1;1"
       tgtscale="10"
       tgtlength="100"
       tgtlength_rdm="0.3;1" />
    <inkscape:path-effect
       effect="sketch"
       id="path-effect3839"
       is_visible="true"
       nbiter_approxstrokes="5"
       strokelength="100"
       strokelength_rdm="0.3;1"
       strokeoverlap="0.3"
       strokeoverlap_rdm="0.3;1"
       ends_tolerance="0.1;1"
       parallel_offset="5;799442994"
       tremble_size="5;1060682146"
       tremble_frequency="1"
       nbtangents="0"
       tgt_places_rdmness="1;1"
       tgtscale="10"
       tgtlength="100"
       tgtlength_rdm="0.3;1" />
    <inkscape:path-effect
       effect="sketch"
       id="path-effect3835"
       is_visible="true"
       nbiter_approxstrokes="5"
       strokelength="100"
       strokelength_rdm="0.3;1"
       strokeoverlap="0.3"
       strokeoverlap_rdm="0.3;1"
       ends_tolerance="0.1;1"
       parallel_offset="5;1"
       tremble_size="5;1"
       tremble_frequency="1"
       nbtangents="0"
       tgt_places_rdmness="1;1"
       tgtscale="10"
       tgtlength="100"
       tgtlength_rdm="0.3;1" />
    <inkscape:path-effect
       tgtlength_rdm="0.3;1"
       tgtlength="100"
       tgtscale="9"
       tgt_places_rdmness="1;1"
       nbtangents="0"
       tremble_frequency="1"
       tremble_size="5;1"
       parallel_offset="5;1"
       ends_tolerance="0.1;1"
       strokeoverlap_rdm="0.3;1"
       strokeoverlap="0.3"
       strokelength_rdm="0.3;1"
       strokelength="100"
       nbiter_approxstrokes="6"
       is_visible="true"
       id="path-effect3831"
       effect="sketch" />
    <inkscape:path-effect
       effect="sketch"
       id="path-effect3827"
       is_visible="true"
       nbiter_approxstrokes="5"
       strokelength="100"
       strokelength_rdm="0.3;1"
       strokeoverlap="0.3"
       strokeoverlap_rdm="0.3;1"
       ends_tolerance="0.1;1"
       parallel_offset="5;1"
       tremble_size="5;1"
       tremble_frequency="1"
       nbtangents="0"
       tgt_places_rdmness="1;1"
       tgtscale="10"
       tgtlength="100"
       tgtlength_rdm="0.3;1" />
    <inkscape:path-effect
       effect="sketch"
       id="path-effect3822"
       is_visible="true"
       nbiter_approxstrokes="3"
       strokelength="100"
       strokelength_rdm="0.3;1"
       strokeoverlap="0.3"
       strokeoverlap_rdm="0.3;1"
       ends_tolerance="0;1"
       parallel_offset="2;1699740438"
       tremble_size="5;1"
       tremble_frequency="1"
       nbtangents="0"
       tgt_places_rdmness="1;1"
       tgtscale="10"
       tgtlength="100"
       tgtlength_rdm="0.3;1" />
    <inkscape:path-effect
       effect="rough_hatches"
       id="path-effect3820"
       is_visible="true"
       direction="370,485.36218 , 110,0"
       dist_rdm="75;1"
       growth="0"
       do_bend="true"
       bender="370,490.36218 , 5,0"
       bottom_edge_variation="44;1"
       top_edge_variation="44;1"
       bottom_tgt_variation="0;1"
       top_tgt_variation="0;1"
       scale_bf="1"
       scale_bb="1"
       scale_tf="1"
       scale_tb="1"
       top_smth_variation="0;1"
       bottom_smth_variation="0;1"
       fat_output="true"
       stroke_width_top="1"
       stroke_width_bottom="1"
       front_thickness="1"
       back_thickness="0.25" />
    <inkscape:path-effect
       effect="envelope"
       id="path-effect3818"
       is_visible="true"
       yy="true"
       xx="true"
       bendpath1="m 150,270.36218 440,0"
       bendpath2="m 590,270.36218 0,440"
       bendpath3="m 150,710.36218 440,0"
       bendpath4="m 150,270.36218 0,440" />
    <inkscape:path-effect
       effect="construct_grid"
       id="path-effect3816"
       is_visible="true"
       nr_x="5"
       nr_y="5" />
    <inkscape:path-effect
       effect="gears"
       id="path-effect3814"
       is_visible="true"
       teeth="10"
       phi="5" />
    <inkscape:path-effect
       effect="spiro"
       id="path-effect3812"
       is_visible="true" />
    <inkscape:path-effect
       effect="sketch"
       id="path-effect3810"
       is_visible="true"
       nbiter_approxstrokes="5"
       strokelength="100"
       strokelength_rdm="0.3;1"
       strokeoverlap="0.3"
       strokeoverlap_rdm="0.3;1"
       ends_tolerance="0.1;1"
       parallel_offset="5;1"
       tremble_size="5;1"
       tremble_frequency="1"
       nbtangents="5"
       tgt_places_rdmness="1;1"
       tgtscale="10"
       tgtlength="100"
       tgtlength_rdm="0.3;1" />
    <inkscape:path-effect
       effect="sketch"
       id="path-effect3808"
       is_visible="true"
       nbiter_approxstrokes="3"
       strokelength="93"
       strokelength_rdm="0;1"
       strokeoverlap="0"
       strokeoverlap_rdm="0.3;1"
       ends_tolerance="0.1;1"
       parallel_offset="4.5;1"
       tremble_size="5;1"
       tremble_frequency="1"
       nbtangents="5"
       tgt_places_rdmness="1;1"
       tgtscale="10"
       tgtlength="100"
       tgtlength_rdm="0.3;1" />
    <inkscape:path-effect
       effect="rough_hatches"
       id="path-effect3806"
       is_visible="true"
       direction="370,485.36218 , 110,0"
       dist_rdm="75;1"
       growth="0"
       do_bend="true"
       bender="370,490.36218 , 5,0"
       bottom_edge_variation="44;1"
       top_edge_variation="44;1"
       bottom_tgt_variation="0;1"
       top_tgt_variation="0;1"
       scale_bf="1"
       scale_bb="1"
       scale_tf="1"
       scale_tb="1"
       top_smth_variation="0;1"
       bottom_smth_variation="0;1"
       fat_output="true"
       stroke_width_top="1"
       stroke_width_bottom="1"
       front_thickness="1"
       back_thickness="0.25" />
    <inkscape:perspective
       sodipodi:type="inkscape:persp3d"
       inkscape:vp_x="0 : 526.18109 : 1"
       inkscape:vp_y="0 : 1000 : 0"
       inkscape:vp_z="744.09448 : 526.18109 : 1"
       inkscape:persp3d-origin="372.04724 : 350.78739 : 1"
       id="perspective10" />
    <filter
       id="filter3260"
       color-interpolation-filters="sRGB" />
  </defs>
  <sodipodi:namedview
     id="base"
     pagecolor="#ffffff"
     bordercolor="#666666"
     borderopacity="1.0"
     inkscape:pageopacity="0"
     inkscape:pageshadow="2"
     inkscape:zoom="1.4142136"
     inkscape:cx="-309.40702"
     inkscape:cy="159.8738"
     inkscape:document-units="px"
     inkscape:current-layer="layer1"
     showgrid="false"
     inkscape:window-width="1552"
     inkscape:window-height="857"
     inkscape:window-x="3"
     inkscape:window-y="0"
     inkscape:window-maximized="0"
     showguides="true"
     inkscape:guide-bbox="true"
     units="cm">
    <inkscape:grid
       type="xygrid"
       id="grid2818"
       empspacing="5"
       visible="true"
       enabled="true"
       snapvisiblegridlinesonly="true" />
    <sodipodi:guide
       orientation="0,1"
       position="-2,978"
       id="guide4003" />
    <sodipodi:guide
       orientation="0,1"
       position="1740.3346,151.02476"
       id="guide4005" />
    <sodipodi:guide
       position="2800,96"
       orientation="0,2661.9336"
       id="guide3279" />
    <sodipodi:guide
       position="2754,94"
       orientation="-628.05212,0"
       id="guide3281" />
    <sodipodi:guide
       position="2816,978"
       orientation="0,-2661.9336"
       id="guide3283" />
    <sodipodi:guide
       position="-134,826"
       orientation="628.05212,0"
       id="guide3285" />
    <sodipodi:guide
       position="2754,96"
       orientation="0,2661.9336"
       id="guide3333" />
    <sodipodi:guide
       position="2754,-22"
       orientation="-628.05212,0"
       id="guide3335" />
    <sodipodi:guide
       position="528,978"
       orientation="0,-2661.9336"
       id="guide3337" />
    <sodipodi:guide
       position="-10,712"
       orientation="628.05212,0"
       id="guide3339" />
  </sodipodi:namedview>
  <metadata
     id="metadata7">
    <rdf:RDF>
      <cc:Work
         rdf:about="">
        <dc:format>image/svg+xml</dc:format>
        <dc:type
           rdf:resource="http://purl.org/dc/dcmitype/StillImage" />
        <dc:title></dc:title>
      </cc:Work>
    </rdf:RDF>
  </metadata>
  <g
     inkscape:label="Ebene 1"
     inkscape:groupmode="layer"
     id="layer1"
     transform="translate(1096.5249,-123.47857)"
     style="display:inline">
    <path
       style="fill:#ebb847;fill-opacity:1;fill-rule:nonzero;stroke:none"
       d="m -106.74193,737.4065 c 0,104.79117 -84.94089,189.75915 -189.73206,189.75915 l 0,-189.75915 189.73206,0 z"
       id="path2816"
       inkscape:connector-curvature="0" />
    <path
       id="path3607"
       d="m -486.20605,737.4065 c 0,-104.79117 84.94089,-189.75918 189.73206,-189.75918 l 0,189.75918 -189.73206,0 z"
       style="fill:#ebb847;fill-opacity:1;fill-rule:nonzero;stroke:none"
       inkscape:connector-curvature="0" />
    <path
       id="path2823"
       d="m -486.20605,737.4065 c 0,104.79117 84.94089,189.75915 189.73206,189.75915 l 0,-189.75915 -189.73206,0 z"
       style="fill:#df5353;fill-opacity:1;fill-rule:nonzero;stroke:none"
       inkscape:connector-curvature="0" />
    <path
       style="fill:#df5353;fill-opacity:1;fill-rule:nonzero;stroke:none"
       d="m -106.74193,737.4065 c 0,-104.79117 -84.94089,-189.75918 -189.73206,-189.75918 l 0,189.75918 189.73206,0 z"
       id="path3609"
       inkscape:connector-curvature="0" />
    <path
       style="fill:#552200;stroke:#000000;stroke-width:1.73518884;stroke-linecap:butt;stroke-linejoin:miter;stroke-miterlimit:4;stroke-opacity:1;stroke-dasharray:none"
       d="m -297.42667,942.2234 c 1.18285,-27.71018 0.15826,-53.96704 -0.79537,-80.55027 m -1.1584,9.21506 c -0.47619,-24.32083 0.22999,-47.88945 1.36273,-71.31501 m -6.48015,21.17662 c -1.0773,-25.28404 -0.38444,-50.71768 0.30472,-76.98692 m 5.59461,19.45087 c 1.44799,-30.62835 0.69208,-62.73726 1.70315,-93.44574 m -8.14922,18.22096 c -0.84915,-28.95041 1.32941,-57.30045 4.73603,-86.5773 m -0.51729,28.01627 c -0.61843,-19.24819 0.14874,-40.06774 1.65037,-61.86148 m -5.75192,365.86822 c -0.72882,-24.88618 0.58136,-50.05233 2.69777,-75.48957 m 4.84179,12.77101 c 0.47515,-23.63974 -0.44305,-46.0707 -2.06512,-67.62043 m -1.02075,15.97401 c 0.82747,-30.1407 -0.29253,-62.46935 -1.21555,-95.55233 m 3.20727,24.30785 c -0.60368,-28.92802 0.89553,-59.29278 2.96391,-87.58373 m -4.87728,25.85112 c 1.34785,-27.00008 0.50952,-54.81612 0.18708,-82.67212 m -4.95272,15.24128 c 1.00817,-20.61031 0.6914,-42.31899 0.25401,-64.46343 m -1.66036,381.38487 c 1.05559,-27.60292 1.22549,-53.38517 2.73152,-76.77838 m 3.83022,13.68002 c -0.93792,-23.30875 -1.25434,-46.90753 -2.46009,-68.86792 m 2.34334,10.11986 c 0.15408,-27.06113 -0.75235,-53.01711 -2.40257,-79.1968 m 0.68359,21.48615 c -0.51286,-29.70055 1.03687,-60.10628 3.37061,-89.06632 m -0.51868,23.73487 c 0.63325,-31.76408 0.0766,-66.88184 0.14862,-103.48029 m -1.5941,29.54118 c 0.0555,-17.33195 0.21886,-34.60317 0.54797,-51.45014 m -1.09482,362.30901 c 0.15008,-27.14994 1.36983,-55.3057 3.99292,-83.96057 m -11.8442,29.45899 c 1.02126,-30.72107 1.82642,-60.79508 4.91859,-91.85811 m 0.70621,24.91454 c 0.4181,-31.86658 -0.19765,-64.06205 -0.72881,-97.59884 m 3.4237,27.90041 c -0.9438,-34.27642 0.81216,-64.66307 2.58786,-95.83174 m -3.0563,30.31271 c 0.0863,-32.13091 0.0541,-65.91493 0.10745,-102.83042 m -6.04516,34.51548 c -0.18947,-10.43646 -0.17939,-20.81543 -0.0263,-31.16828 m 3.69865,359.81805 c 0.87543,-28.61132 -0.1112,-57.54865 -0.87996,-83.6794 m 3.84822,26.44331 c -0.45478,-23.80002 -0.69143,-47.13742 -1.38895,-70.08172 m 3.10804,18.02314 c 0.42127,-30.03023 0.4562,-58.7303 1.09265,-88.07515 m -2.85098,23.64107 c -0.92651,-24.49619 -0.87996,-49.91924 -1.42366,-75.48346 m -0.80254,18.45614 c -0.0107,-27.46319 0.85056,-57.42022 2.56592,-88.70974 m -5.80832,14.43998 c -0.50327,-23.7659 -0.003,-45.96838 0.77273,-67.67251 m 4.53999,213.67131 0,-160.85937 m 0,41.84034 0,-143.51563 m 0,182.1164 0,-149.14063 m 0,430.60456 0,-190.15625 m 0,48.6201 0,-169.53125"
       id="path3676"
       inkscape:path-effect="#path-effect3747"
       inkscape:original-d="m -300.47399,940.85665 0,-381.74152"
       inkscape:connector-curvature="0" />
    <path
       style="fill:#552200;stroke:#000000;stroke-width:1.68740904;stroke-linecap:butt;stroke-linejoin:miter;stroke-miterlimit:4;stroke-opacity:1;stroke-dasharray:none"
       d="m -467.61962,745.29528 c 27.72465,-0.90028 53.24193,-0.34711 78.83007,-0.12051 m -20.37118,-10.19182 c 23.20389,-0.40156 47.59024,-0.051 72.40304,0.44276 m -21.77331,5.72911 c 23.53091,-0.42727 48.83187,-1.00426 74.12926,-2.4167 m -10.92068,2.76877 c 32.82376,1.06436 63.44349,0.64818 95.83046,1.63239 m -34.99755,-8.8986 c 27.12351,-0.6952 57.27461,-0.78991 88.65395,-1.81162 m -21.85732,6.46059 c 13.14597,0.38526 26.95555,0.0164 41.21331,-0.90717 m -346.70719,0.4772 c 23.91805,0.01 49.87517,-0.26063 76.63845,-0.80204 m -11.72559,-3.96369 c 23.65249,-0.22828 45.9117,0.75217 67.46696,2.61391 m -15.67141,1.17544 c 31.23645,0.57545 60.5253,-1.03693 90.01137,-3.40386 m -22.01197,-1.16617 c 29.41859,1.3975 60.94019,1.35811 93.03075,3.39279 m -29.45922,1.02095 c 28.46973,0.39576 54.75339,-0.0243 81.55277,-0.48457 m -25.0145,-5.02312 c 15.63763,0.39417 30.60516,0.23221 45.33508,-0.24773 m -355.15709,5.63818 c 28.64153,0.26167 56.39733,2.34393 85.48932,6.81535 m -16.92389,-7.2837 c 23.32224,1.19646 47.26594,2.10295 70.32034,4.64776 m -13.70812,-6.09384 c 26.23181,-0.71998 51.403,-0.3349 75.83056,-0.17341 m -17.8631,2.75209 c 29.74144,0.85935 61.54541,1.01358 94.13349,2.61338 m -25.48201,-1.48064 c 32.74379,0.67081 64.2976,-2.01194 96.48025,-6.1756 m -29.71465,1.13657 c 11.58146,0.27789 23.20786,0.58148 34.89728,1.01428 m -344.54808,-2.38162 c 27.27196,0.24589 55.61346,-0.51407 85.35848,-1.7731 m -31.90584,9.19466 c 30.77281,-0.66898 61.32949,-0.69089 94.17326,-1.70185 m -23.43439,0.53008 c 31.60053,-0.36918 62.1672,-1.06717 92.81845,-3.10664 m -23.09475,1.11408 c 31.39878,-1.60714 65.49718,0.67562 99.61559,2.17608 m -31.58472,1.49611 c 26.64154,-0.47203 53.19883,-2.13896 79.79385,-5.90659 m -353.43978,5.39885 c 32.19866,-0.34938 66.43719,-0.10691 100.89145,-0.30884 m -28.15215,-9.26093 c 30.47231,1.28451 59.08267,2.2429 87.9107,6.00807 m -20.04204,2.31179 c 23.07061,-0.037 46.35928,0.38869 69.18716,1.20741 m -11.98582,2.77668 c 29.28338,-0.87658 58.18033,-0.42314 87.67894,-0.61426 m -25.56971,0.69288 c 23.79771,0.47777 48.56849,0.0288 72.74901,-0.56153 m -17.47401,1.61623 c 14.47417,0.29106 29.18539,-0.0951 44.13182,-0.99625 m -201.17001,-5.48833 160.85937,0 m -48.17511,0 143.515621,0 m -180.061871,0 149.140626,0 m -415.623666,0 190.15625,0 m -56.15335,0 169.53125,0"
       id="path3678"
       inkscape:path-effect="#path-effect3749"
       inkscape:original-d="m -477.12524,737.40499 359.82662,0"
       inkscape:connector-curvature="0" />
    <path
       style="fill:none;stroke:#ffffff;stroke-width:0.86759442;stroke-opacity:1"
       d="m -227.0984,629.63713 c 15.1582,-0.48751 29.66911,-0.54886 43.89451,-0.46665 8.85057,0.0512 15.87819,7.41287 15.56524,16.54066 -0.12993,3.78972 -0.26471,7.57793 -0.39811,11.35976 m -3.14236,-29.26601 c 1.21299,2.27558 1.89207,4.90458 1.8663,7.71524 -0.0705,7.68642 -0.0255,15.44479 0.10924,23.25429 0.15671,9.08557 -6.88561,16.45801 -15.56815,16.6127 -4.70495,0.0838 -9.38556,0.17887 -14.04832,0.27989 m 8.96714,5.71167 c -0.26403,0.007 -0.52948,0.009 -0.79621,0.004 -17.3914,-0.28903 -33.99272,-0.6487 -50.34116,-1.28674 -8.2193,-0.32078 -14.88932,-6.92859 -15.59445,-15.52827 m 14.95779,15.69363 c -5.31899,-2.36839 -8.99835,-7.87582 -8.84484,-14.34151 0.18087,-7.61787 0.27604,-15.2908 0.34389,-22.97645 0.0789,-8.94147 7.38286,-16.1538 16.50649,-16.03576 9.28675,0.12014 18.62525,0.28781 28.11246,0.57333 m -26.31676,-8.8986 c 13.14679,-0.33349 26.9903,-0.52882 41.33188,-0.75459 4.77858,-0.0752 9.14617,1.67061 12.4257,4.5371 3.27953,2.86648 5.46557,6.85572 5.91083,11.26161 0.60722,6.00853 1.29144,11.98885 2.034,17.92513 m -0.80176,-15.07736 c 0.15529,1.01932 0.22459,2.06725 0.1994,3.13502 -0.1868,7.91878 -0.16578,15.60096 0.0238,23.08242 0.11027,4.35196 -1.5535,8.21424 -4.30552,10.89689 -2.75202,2.68265 -6.59516,4.18986 -10.81302,3.79395 -7.64774,-0.71786 -15.15606,-1.6151 -22.57107,-2.64962 m 10.36477,3.96786 c -14.78586,0.006 -28.89284,-0.0821 -42.55777,-0.26123 -8.59204,-0.11265 -15.35373,-7.50718 -14.63546,-16.72029 0.15812,-2.02818 0.32202,-4.05811 0.49105,-6.08976 m 8.25573,12.00902 c -2.07062,-2.79282 -3.3015,-6.27171 -3.29116,-10.02838 0.0212,-7.71913 -0.0991,-15.31086 -0.33595,-22.78711 -0.27552,-8.69786 6.63868,-15.56476 15.13285,-14.95145 3.30622,0.23873 6.59423,0.49843 9.86637,0.77801 m -3.09127,1.1754 c 14.24019,0.25979 28.08348,0.0737 41.72717,-0.42647 8.88719,-0.32578 15.9675,6.56585 15.71088,15.05308 -0.22059,7.2952 -0.46564,14.51745 -0.70054,21.68988 -0.0166,0.5078 -0.0599,1.00933 -0.12872,1.50326 m 3.27774,-26.63746 c 0.002,0.19157 0.002,0.3839 -0.002,0.57694 -0.14804,8.11717 -0.15885,16.14156 -0.0582,24.13208 0.11712,9.29617 -6.93498,16.74775 -15.6011,17.00777 -13.27461,0.3983 -26.28509,0.89487 -39.1771,1.82313 m 19.95292,1.02091 c -10.58548,0.16083 -21.53202,0.1869 -32.65825,0.1303 -9.02674,-0.0459 -16.39189,-7.40036 -16.52332,-16.55675 -0.11233,-7.82646 -0.24417,-15.67346 -0.33504,-23.52364 m -4.95272,15.24129 c 0.32383,-6.6203 0.51072,-13.35403 0.60072,-20.17918 0.11958,-9.06834 7.35129,-16.50029 16.26383,-16.79524 14.47807,-0.47913 28.73931,-1.25514 43.18657,-2.10651 m -43.51276,7.77308 c 16.75691,0.15162 33.21647,0.91448 49.81087,2.39915 4.64184,0.41529 8.84279,2.66591 11.9319,6.09669 3.08911,3.43079 5.06284,8.03255 5.26223,13.18636 0.14027,3.62576 0.29462,7.28174 0.46634,10.96878 m -6e-4,-27.33785 c 2.25023,3.01702 3.56073,6.86039 3.43267,11.0669 -0.24749,8.12907 -0.45618,16.25913 -0.67411,24.45151 -0.12678,4.7655 -2.06371,9.08945 -5.14091,12.31322 -3.0772,3.22378 -7.29135,5.34109 -11.98,5.71334 -4.55614,0.36172 -9.13214,0.76492 -13.73666,1.22067 m 18.53987,-6.37257 c -0.9757,0.15579 -1.98432,0.22538 -3.01767,0.20033 -16.64608,-0.40348 -33.71313,-0.38375 -51.12054,-0.27896 -9.41944,0.0567 -17.09452,-7.14509 -17.65862,-16.12161 -0.006,-0.0903 -0.0114,-0.18066 -0.0171,-0.271 m 10.0481,17.79271 c -5.64597,-2.42563 -9.49085,-7.91126 -9.43386,-14.31707 0.0676,-7.59549 0.25165,-15.20853 0.53127,-22.80387 0.32532,-8.8364 7.9732,-15.92763 17.546,-15.63663 8.58477,0.26097 17.24844,0.58346 25.96718,1.00751 m -19.74095,-1.48062 c 15.29228,0.31022 30.33009,-0.0968 45.29329,-1.03575 4.50529,-0.28271 8.56507,1.23158 11.49419,3.83762 2.92912,2.60604 4.72744,6.30965 4.7085,10.37879 -0.0326,6.99526 -0.0577,13.87626 -0.0504,20.66869 0.001,1.00985 -0.1159,1.99257 -0.33944,2.93552 m -1.33832,-27.2414 c 0.0606,0.5791 0.0927,1.16717 0.0947,1.7628 0.0274,7.95073 0.0764,15.9155 0.15135,23.92457 0.0872,9.31775 -7.08392,16.87335 -15.95643,17.31472 -15.50899,0.77152 -30.8904,1.86396 -46.10694,3.53183 m 26.50652,-6.58435 c -10.45164,0.0943 -20.74588,0.0406 -30.86387,-0.13245 -8.69618,-0.14877 -15.58377,-7.61559 -14.99059,-16.94736 0.50987,-8.02113 1.12428,-16.09473 1.85083,-24.20929 0.055,-0.61415 0.1407,-1.22076 0.25572,-1.81834 m -11.935,29.45583 c 0.20982,-6.31152 0.41051,-12.59573 0.62379,-18.86681 0.31201,-9.17431 7.86281,-16.54032 17.31897,-16.66884 16.05536,-0.21821 32.37365,-0.47655 49.28751,-0.99245"
       id="rect3824"
       inkscape:path-effect="#path-effect3827"
       inkscape:original-d="m -236.66925,621.74684 50.07655,0 c 9.03241,0 16.30399,7.2716 16.30399,16.304 l 0,23.29143 c 0,9.03241 -7.27158,16.30398 -16.30399,16.30398 l -50.07655,0 c -9.03242,0 -16.30399,-7.27157 -16.30399,-16.30398 l 0,-23.29143 c 0,-9.0324 7.27157,-16.304 16.30399,-16.304 z"
       inkscape:connector-curvature="0" />
    <path
       inkscape:original-d="m -235.90893,690.36028 49.69503,0 c 8.96359,0 16.17977,1.51475 16.17977,3.39629 l 0,4.85185 c 0,1.88154 -7.21618,3.39629 -16.17977,3.39629 l -49.69503,0 c -8.96358,0 -16.17976,-1.51475 -16.17976,-3.39629 l 0,-4.85185 c 0,-1.88154 7.21618,-3.39629 16.17976,-3.39629 z"
       inkscape:path-effect="#path-effect3831"
       id="path3829"
       d="m -226.33808,698.25057 c 15.02541,-0.48324 29.41483,-0.54776 43.5206,-0.46878 4.39312,0.0246 8.33045,0.43904 11.16961,1.08115 1.41958,0.32105 2.56469,0.69909 3.35335,1.11493 0.39433,0.20792 0.69954,0.4253 0.90475,0.64996 0.2052,0.22466 0.31054,0.45657 0.30312,0.6942 -0.051,1.63408 -0.10385,3.26859 -0.15802,4.90315 -0.008,0.23771 -0.12855,0.46969 -0.35379,0.69448 -0.22524,0.22479 -0.55489,0.44233 -0.97872,0.65049 -0.84767,0.41633 -2.07205,0.79518 -3.58652,1.11771 -2.63379,0.5609 -6.14533,0.95171 -10.06796,1.06753 m 13.29108,-17.63786 c -0.027,1.33352 -0.0502,2.66945 -0.0697,4.00768 -0.003,0.23207 -0.11945,0.45844 -0.3384,0.67602 -0.21895,0.21759 -0.54071,0.42644 -0.95442,0.6244 -0.8274,0.39591 -2.02257,0.74824 -3.4956,1.04202 -2.94605,0.58755 -7.00116,0.94251 -11.45396,0.9404 -16.4578,-0.008 -32.45531,0.25911 -48.24357,0.59839 -0.29612,0.006 -0.59016,0.0109 -0.88192,0.0136 m 8.96738,5.73448 c -5.05046,-0.0832 -10.03378,-0.17209 -14.96308,-0.27171 -4.56385,-0.0922 -8.63527,-0.56442 -11.56667,-1.25228 -1.4657,-0.34392 -2.64664,-0.74146 -3.46136,-1.17209 -0.40736,-0.21532 -0.72315,-0.4389 -0.93695,-0.66868 -0.2138,-0.22978 -0.32563,-0.46564 -0.32465,-0.70724 0.007,-1.66134 0.0179,-3.32454 0.0328,-4.9898 0.002,-0.24217 0.11716,-0.47867 0.33506,-0.70944 0.21791,-0.23076 0.53868,-0.45568 0.95201,-0.67297 0.82665,-0.4346 2.02348,-0.83863 3.507,-1.19446 2.96704,-0.71166 7.08286,-1.2307 11.66377,-1.41014 7.17517,-0.28107 14.39,-0.61332 21.60454,-1.01222 m -6.05095,2.76867 c 14.04041,0.45093 27.68525,0.63611 41.23647,0.77463 4.52327,0.0462 8.59616,0.46226 11.54189,1.10502 1.47286,0.32137 2.66369,0.69921 3.48682,1.11494 0.41156,0.20787 0.73119,0.42519 0.94827,0.64982 0.21707,0.22463 0.33156,0.45651 0.3333,0.69412 0.0119,1.63395 0.0244,3.26856 0.0378,4.90422 0.002,0.23787 -0.10881,0.47003 -0.321,0.69509 -0.21219,0.22506 -0.52583,0.44298 -0.93007,0.65171 -0.80847,0.41747 -1.97939,0.79817 -3.42639,1.12478 -2.89399,0.65322 -6.89276,1.08986 -11.29915,1.17445 -5.18088,0.0995 -10.33117,0.22439 -15.4326,0.38804 m 18.91287,-9.85036 c -2.99693,0.51681 -7.04296,0.78908 -11.43592,0.70191 -16.60791,-0.32958 -32.25772,-0.52285 -47.31205,-0.88754 -4.07307,-0.0987 -7.70421,-0.58049 -10.30992,-1.27746 -1.30286,-0.34849 -2.34996,-0.75034 -3.0652,-1.18435 -0.35763,-0.21701 -0.63232,-0.44204 -0.81246,-0.67303 -0.18014,-0.23099 -0.26621,-0.4678 -0.23956,-0.71036 0.18325,-1.66793 0.37098,-3.3385 0.56287,-5.012 0.0279,-0.24337 0.16875,-0.48109 0.42044,-0.71348 0.23647,-0.21835 0.57035,-0.43187 0.99416,-0.63922 m 12.26413,15.96529 c -3.70902,-8.5e-4 -6.97689,-0.31188 -9.43857,-0.8134 -1.47734,-0.30098 -2.66474,-0.67005 -3.4834,-1.08123 -0.40934,-0.20559 -0.72647,-0.42173 -0.94126,-0.64563 -0.21479,-0.22389 -0.32726,-0.45549 -0.32686,-0.69296 0.003,-1.63297 0.0138,-3.27542 0.0325,-4.92701 0.003,-0.24019 0.11834,-0.47481 0.33722,-0.7034 0.21888,-0.2286 0.54099,-0.4511 0.95629,-0.6661 0.83061,-0.43002 2.03396,-0.83001 3.52961,-1.18763 2.9913,-0.71524 7.15508,-1.26463 11.82877,-1.52711 13.82706,-0.77652 28.09446,-2.0917 42.60652,-3.76682 m -38.52197,3.96786 c 13.33724,0.005 27.29549,-0.0746 41.66755,-0.23833 4.68815,-0.0534 8.96481,0.26768 12.07365,0.8358 1.55442,0.28406 2.81641,0.63003 3.69332,1.02168 0.43845,0.19583 0.78062,0.40308 1.01627,0.61941 0.23565,0.21633 0.36448,0.44181 0.38057,0.67302 0.11062,1.58987 0.22579,3.17859 0.34516,4.76617 0.0174,0.23087 -0.0779,0.45597 -0.26969,0.67172 -0.19179,0.21575 -0.48042,0.42222 -0.85412,0.61688 -0.74739,0.38933 -1.83515,0.73148 -3.17862,1.00854 -1.52488,0.31447 -3.37932,0.54514 -5.44341,0.66658 m 15.43521,-12.33447 c 0.0499,0.10533 0.0763,0.21224 0.0785,0.32039 0.0319,1.60231 0.0572,3.21038 0.0761,4.8241 0.003,0.23467 -0.10736,0.4637 -0.31898,0.68486 -0.21161,0.22115 -0.5248,0.43445 -0.92919,0.638 -0.80877,0.40711 -1.98232,0.77522 -3.44041,1.0907 -2.91618,0.63095 -6.97339,1.05367 -11.52,1.15031 -16.22473,0.34489 -32.99776,1.20546 -50.09927,2.47729 m 13.77785,1.1754 c -5.35618,0.10313 -10.77491,0.13599 -16.24383,0.10683 -4.45285,-0.0237 -8.50596,-0.46671 -11.4459,-1.14118 -1.46997,-0.33723 -2.66143,-0.73192 -3.48565,-1.16105 -0.41212,-0.21457 -0.73243,-0.43775 -0.95014,-0.66728 -0.21771,-0.22953 -0.33277,-0.46529 -0.33512,-0.70683 -0.0162,-1.66093 -0.0356,-3.32647 -0.0579,-4.99642 -0.003,-0.24285 0.1062,-0.48007 0.31658,-0.71188 0.21039,-0.2318 0.52177,-0.45806 0.92313,-0.67719 0.8027,-0.43826 1.9653,-0.84792 3.40112,-1.21259 2.87165,-0.72934 6.83482,-1.28029 11.20856,-1.50501 11.92097,-0.61249 23.73822,-1.43445 35.58662,-2.37572 m -31.79844,-1.16615 c 15.69924,0.73817 31.98518,1.07549 48.63181,1.5293 4.65765,0.12697 8.89041,0.63142 11.96198,1.34591 1.53578,0.35725 2.78094,0.76644 3.64498,1.20599 0.43202,0.21978 0.76874,0.44713 0.99988,0.68002 0.23115,0.2329 0.35648,0.47118 0.36905,0.71521 0.0865,1.67805 0.17576,3.35916 0.26769,5.04386 0.0134,0.245 -0.0859,0.48436 -0.28304,0.71894 -0.19713,0.23457 -0.49232,0.46418 -0.87411,0.68732 -0.76356,0.44628 -1.87356,0.86652 -3.2456,1.24399 -2.74408,0.75494 -6.5356,1.33901 -10.7194,1.61416 -1.22404,0.0805 -2.44688,0.1646 -3.66866,0.25257 m 15.23613,-6.20356 c 0.0628,1.29449 0.12082,2.58722 0.17438,3.87825 0.01,0.23795 -0.0931,0.47014 -0.29539,0.69508 -0.20231,0.22494 -0.50416,0.44259 -0.89488,0.65064 -0.78144,0.4161 -1.91841,0.79382 -3.33245,1.11273 -2.82809,0.63783 -6.76832,1.03908 -11.18291,1.04415 -16.31659,0.0187 -33.1813,-0.18871 -49.99677,-0.45079 -4.54955,-0.0709 -8.65017,-0.51732 -11.60994,-1.18139 -0.0275,-0.006 -0.0549,-0.0124 -0.0822,-0.0186 m 15.24821,-4.01333 c -2.75184,0.0756 -5.52842,0.13066 -8.32667,0.16694 -4.34027,0.0563 -8.31109,-0.31863 -11.19513,-0.94356 -1.44202,-0.31246 -2.61209,-0.68706 -3.4208,-1.10132 -0.40435,-0.20713 -0.71839,-0.42419 -0.931,-0.64871 -0.21262,-0.22452 -0.32384,-0.45646 -0.32238,-0.69419 0.01,-1.63475 0.0151,-3.27435 0.0158,-4.9185 1e-4,-0.2391 0.1129,-0.47256 0.3276,-0.69945 0.2147,-0.22689 0.53131,-0.44715 0.93886,-0.65903 0.8151,-0.42376 1.99396,-0.81395 3.44835,-1.15498 2.90878,-0.68206 6.91729,-1.16939 11.33484,-1.32239 13.92485,-0.48228 27.66258,-1.23214 41.57275,-2.05186 m -38.43884,7.77308 c 15.43568,0.13966 30.61904,0.79798 45.88792,2.06137 4.60131,0.38073 8.76356,1.1613 11.78113,2.09293 1.50879,0.46581 2.73092,0.96835 3.57777,1.47825 0.42343,0.25495 0.75301,0.5117 0.97829,0.76881 0.22528,0.2571 0.34612,0.51405 0.3542,0.77674 0.0556,1.80639 0.11378,3.62033 0.17492,5.44192 0.009,0.26491 -0.0949,0.52432 -0.29787,0.78526 -0.20298,0.26094 -0.5053,0.52288 -0.89567,0.78551 -0.78072,0.52527 -1.9137,1.05304 -3.31266,1.56506 -2.79547,1.02317 -6.65286,1.98486 -10.88803,2.70395 m 19.99832,-14.58705 c -0.0498,1.36593 -0.0979,2.73105 -0.1445,4.09563 -0.008,0.24643 -0.12957,0.48716 -0.35528,0.72335 -0.22572,0.23619 -0.55583,0.46762 -0.97992,0.69256 -0.84817,0.44988 -2.07214,0.87364 -3.58335,1.25092 -3.0224,0.75457 -7.19189,1.32168 -11.80285,1.53895 -17.04243,0.80302 -33.99783,1.72494 -51.33291,3.36141 -1.01614,0.0959 -2.01214,0.17452 -2.98063,0.23635 m 18.55636,-6.04192 c -4.43009,-0.1218 -8.89053,-0.21197 -13.37979,-0.27695 -4.51508,-0.0653 -8.62067,-0.47694 -11.59988,-1.1085 -1.48961,-0.31577 -2.69726,-0.68663 -3.53357,-1.09654 -0.41816,-0.20495 -0.74348,-0.41965 -0.9653,-0.64205 -0.22182,-0.2224 -0.34004,-0.45248 -0.34554,-0.68826 -0.0378,-1.62133 -0.0792,-3.24041 -0.12398,-4.85757 -0.007,-0.23517 0.0996,-0.46459 0.3057,-0.68593 0.20606,-0.22135 0.51215,-0.43463 0.90702,-0.63748 0.78976,-0.40569 1.93476,-0.76964 3.34836,-1.07275 2.8272,-0.60623 6.72771,-0.96798 11.02027,-0.94057 8.5135,0.0544 16.93012,0.13433 25.26205,0.18881 m -18.17019,2.75204 c 13.72652,0.39258 27.8835,0.63799 42.34903,0.94129 4.64382,0.0974 8.868,0.57115 11.93487,1.26008 1.53343,0.34446 2.77714,0.74236 3.64023,1.17326 0.43155,0.21546 0.76793,0.43915 0.99881,0.66902 0.23087,0.22987 0.35602,0.46581 0.36842,0.70748 0.0853,1.66183 0.17399,3.32556 0.266,4.9915 0.0134,0.24227 -0.0859,0.47888 -0.28295,0.70979 -0.19707,0.23091 -0.49217,0.456 -0.87378,0.67353 -0.76322,0.43507 -1.87256,0.8398 -3.24308,1.19677 -2.74104,0.71395 -6.52588,1.23697 -10.69513,1.42599 -3.35164,0.15195 -6.69028,0.32047 -10.01802,0.50908 m 24.52412,-3.25608 c -0.73015,0.30557 -1.65156,0.58717 -2.72954,0.83389 -2.87252,0.65746 -6.85822,1.06391 -11.2957,1.02506 -16.40119,-0.14362 -33.04252,-1.08965 -49.68172,-2.58859 -4.50187,-0.40555 -8.56408,-1.19219 -11.49944,-2.12027 -1.46767,-0.46403 -2.65378,-0.96281 -3.47313,-1.46924 -0.40967,-0.25321 -0.72766,-0.50831 -0.94336,-0.76397 -0.21569,-0.25566 -0.32909,-0.51141 -0.32971,-0.77286 -0.004,-1.79784 -0.008,-3.60013 -0.0103,-5.40664 -3.6e-4,-0.26271 0.11205,-0.51987 0.32647,-0.77771 0.21442,-0.25785 0.53086,-0.5159 0.9387,-0.7735 0.81567,-0.5152 1.9969,-1.02837 3.45935,-1.51878 1.59453,-0.5347 3.52339,-1.04201 5.67773,-1.49043 m -0.60906,12.409 c -2.53906,-0.10376 -4.80451,-0.34032 -6.62982,-0.67843 -1.45515,-0.26954 -2.63063,-0.60377 -3.44203,-0.9867 -0.4057,-0.19146 -0.72039,-0.39512 -0.93337,-0.6085 -0.21299,-0.21338 -0.3243,-0.4366 -0.32285,-0.66555 0.01,-1.57441 0.0209,-3.14761 0.033,-4.71933 0.002,-0.22857 0.11628,-0.45136 0.33347,-0.66406 0.21719,-0.21271 0.53701,-0.41544 0.94893,-0.60555 0.82385,-0.38022 2.0161,-0.71 3.49177,-0.9714 2.95135,-0.52278 7.03667,-0.77215 11.57392,-0.60771 16.77002,0.60778 33.66619,1.47151 50.73163,2.88513 4.61718,0.38247 8.79748,1.14955 11.82681,2.06725 1.0053,0.30454 1.88377,0.6254 2.6094,0.95408"
       style="fill:none;stroke:#ffffff;stroke-width:0.39446771;stroke-opacity:1"
       inkscape:connector-curvature="0" />
    <g
       id="g3841"
       transform="matrix(0.69027556,0,0,0.69027556,-555.93839,367.99823)">
      <path
         inkscape:original-d="m 284.56732,461.75075 c 0,0 -9.39609,-65.77264 24.16138,-65.77264 33.55746,0 22.81907,67.11494 22.81907,67.11494 l -46.98045,-1.3423 z"
         inkscape:path-effect="#path-effect3835"
         id="path3833"
         d="m 286.93423,463.15384 c -0.0426,-1.18891 -0.0814,-2.50466 -0.11061,-3.92214 -0.13059,-6.34435 -0.0958,-14.7076 0.82086,-22.96934 0.45833,-4.13087 1.14328,-8.2405 2.16954,-12.08003 1.02626,-3.83952 2.39484,-7.40949 4.22106,-10.4614 1.82622,-3.05191 4.111,-5.58601 6.95534,-7.34756 2.84433,-1.76155 6.24724,-2.74973 10.29336,-2.70658 3.03122,0.0323 5.68583,0.64701 8.00246,1.73569 m -19.87298,-9.17791 c 2.83301,-1.75718 6.2238,-2.76945 10.27132,-2.80137 4.16996,-0.0329 7.68132,1.00585 10.62451,2.84059 2.9432,1.83474 5.32046,4.46681 7.24386,7.63524 1.9234,3.16842 3.39391,6.87383 4.52097,10.85474 1.12707,3.98091 1.91082,8.23736 2.45055,12.50253 0.67048,5.29837 0.96439,10.60995 1.05377,15.4153 m -6.90886,-9.70318 c 0.005,0.0998 0.01,0.19958 0.0147,0.29938 0.39582,8.24213 -0.0339,16.46276 -0.55169,22.60684 -0.2589,3.07203 -0.54297,5.62651 -0.76456,7.41397 -0.1108,0.89373 -0.20591,1.59576 -0.27361,2.07493 -0.0338,0.23959 -0.0608,0.42346 -0.0794,0.54769 -0.009,0.0621 -0.0165,0.10932 -0.0214,0.14112 -0.002,0.0159 -0.004,0.028 -0.006,0.0361 -0.001,0.008 -0.002,0.0124 -0.002,0.0126 0,1e-5 0,1e-5 0,1e-5 -13.43779,-0.77089 -26.59033,-1.67878 -39.74396,-2.8344 m 22.27,3.24511 c -7.33826,0.0386 -14.80638,-0.01 -22.34755,-0.10455 0,0 0,0 0,-10e-6 -0.001,-0.008 -0.50365,-4.05307 -0.78386,-10.14681 -0.28022,-6.09375 -0.34669,-14.2414 0.63687,-22.37741 0.49177,-4.06801 1.24846,-8.13156 2.3786,-11.93044 1.13013,-3.79889 2.63365,-7.33326 4.61528,-10.34529 1.98164,-3.01204 4.44006,-5.5029 7.48634,-7.20765 1.36815,-0.76563 2.8551,-1.37249 4.47271,-1.79498 m -26.86253,46.61155 c -0.0282,-0.30887 -0.0557,-0.62334 -0.0824,-0.94312 -0.52741,-6.31692 -0.70277,-14.6988 0.42431,-23.05866 0.56354,-4.17993 1.44535,-8.35623 2.73062,-12.27399 1.28527,-3.91777 2.97227,-7.57698 5.14457,-10.72314 2.1723,-3.14616 4.82723,-5.77865 8.08056,-7.6481 3.25333,-1.86945 7.1054,-2.97523 11.72764,-3.08355 4.62227,-0.10833 8.51326,0.83625 11.82931,2.55773 1.48035,0.7685 2.84652,1.69166 4.11213,2.74465 m -20.43397,1.39583 c 1.69979,-0.4193 3.55952,-0.62921 5.59415,-0.60246 4.11867,0.0541 7.61083,1.08689 10.54906,2.87061 2.93824,1.78372 5.32633,4.31402 7.27896,7.31723 1.95263,3.0032 3.47171,6.47721 4.67023,10.15214 1.19853,3.67494 2.07691,7.55032 2.73033,11.3783 1.30683,7.65595 1.72293,15.10781 1.82578,20.62077 0.0109,0.58255 0.0181,1.14364 0.0224,1.68133 m -6.62505,-13.5983 c -0.0224,5.76637 -0.3125,11.20948 -0.6384,15.61293 -0.23189,3.13318 -0.48409,5.74039 -0.68083,7.5656 -0.0984,0.91261 -0.18286,1.62973 -0.24315,2.11925 -0.0301,0.24476 -0.0542,0.43263 -0.0708,0.55956 -0.008,0.0635 -0.0147,0.1117 -0.0191,0.14419 -0.002,0.0163 -0.004,0.0286 -0.005,0.0369 -0.001,0.008 -0.002,0.0126 -0.002,0.0129 0,0 -10e-6,10e-6 -10e-6,10e-6 -15.31341,-0.56439 -29.99079,-1.2384 -44.33932,-2.01984 0,0 0,0 0,-10e-6 -1.7e-4,-0.003 -0.0304,-0.5286 -0.0608,-1.48513 m 20.28936,-2.07397 c -4.98442,-0.195 -10.0347,-0.33286 -15.14375,-0.41695 0,0 0,0 0,-10e-6 -0.001,-0.008 -0.59188,-4.08672 -1.06652,-10.09359 -0.47464,-6.00687 -0.85473,-13.92171 -0.32456,-21.68978 0.26509,-3.88404 0.76178,-7.73502 1.60815,-11.31184 0.70919,-2.99709 1.66448,-5.80233 2.93361,-8.27241 m -7.18283,46.70302 c -0.0251,-0.58376 -0.0486,-1.19243 -0.07,-1.82391 -0.20531,-6.06963 -0.22623,-14.26746 0.68222,-22.61801 0.45422,-4.17527 1.14499,-8.38426 2.18296,-12.35971 1.03798,-3.97545 2.42391,-7.71632 4.26917,-10.95454 1.84526,-3.23821 4.15062,-5.97216 7.01649,-7.95354 2.86588,-1.98138 6.29172,-3.21044 10.36337,-3.47259 4.07167,-0.26214 7.46645,0.54852 10.27854,2.13993 2.8121,1.59142 5.04017,3.96067 6.78633,6.82509 0.0875,0.14359 0.17386,0.28844 0.25899,0.43449 M 307.4598,391.7072 c 1.01825,-0.0972 2.08541,-0.12411 3.20386,-0.0755 4.13081,0.1796 7.61512,1.3559 10.53538,3.30732 2.92026,1.95142 5.2789,4.67673 7.18724,7.92667 1.90835,3.24995 3.36772,7.02339 4.48942,11.06293 1.1217,4.03953 1.90603,8.34521 2.45294,12.65943 1.09384,8.62845 1.24409,17.30639 1.12973,23.87581 -0.0572,3.28472 -0.1824,6.03837 -0.29435,7.97204 -0.056,0.96683 -0.10861,1.72851 -0.14739,2.24884 -0.0194,0.26017 -0.0353,0.46001 -0.0464,0.59505 -0.006,0.0675 -0.01,0.11885 -0.0129,0.15343 -0.001,0.0173 -0.003,0.0304 -0.003,0.0393 -7.7e-4,0.009 -0.001,0.0134 -0.001,0.0137 0,10e-6 0,10e-6 0,10e-6 -2.58868,0.0748 -5.17146,0.16415 -7.74949,0.2708 m 4.92827,-15.19213 c 0.0177,2.15589 -0.0208,4.1801 -0.0907,6.02312 -0.12062,3.17921 -0.33436,5.81941 -0.51542,7.66676 -0.0905,0.92367 -0.17296,1.64912 -0.23254,2.14428 -0.0298,0.24757 -0.0539,0.43757 -0.0705,0.56595 -0.008,0.0642 -0.0148,0.11296 -0.0192,0.14582 -0.002,0.0164 -0.004,0.0289 -0.005,0.0373 -0.001,0.008 -0.002,0.0128 -0.002,0.013 0,10e-6 -10e-6,10e-6 -10e-6,10e-6 -15.32966,-0.39083 -31.19658,-0.99747 -47.09543,-1.6748 0,0 0,0 0,-10e-6 -0.001,-0.008 -0.65521,-4.1834 -1.10135,-10.45129 -0.17974,-2.52521 -0.32496,-5.39004 -0.37544,-8.45768 m -3.94858,11.95987 c -0.11977,-1.70267 -0.29618,-4.68518 -0.39711,-8.49578 -0.16133,-6.09042 -0.15262,-14.31495 0.76809,-22.67898 0.46036,-4.18202 1.15436,-8.39436 2.19624,-12.36863 1.04189,-3.97427 2.43248,-7.70946 4.28545,-10.9378 1.85298,-3.22834 4.16877,-5.94854 7.05037,-7.91101 2.8816,-1.96247 6.32771,-3.16791 10.4353,-3.39252 4.10761,-0.22461 7.54274,0.62552 10.40329,2.26171 0.58544,0.33486 1.14684,0.70264 1.68509,1.10088 m -24.03729,6.43208 c 3.06315,-1.72802 6.67386,-2.67554 10.94817,-2.56341 4.3231,0.11341 7.92156,1.29512 10.9308,3.28644 3.00924,1.99132 5.42862,4.79546 7.37686,8.17265 1.94824,3.37718 3.42471,7.32837 4.54226,11.60203 1.11756,4.27366 1.87637,8.87022 2.38696,13.51698 1.02119,9.29352 1.06515,18.81294 0.89854,26.07179 -0.0351,1.52993 -0.0804,2.95812 -0.12989,4.25958 m 4.53855,-28.21975 c -0.001,6.66484 -0.44967,13.01189 -0.96405,18.07552 -0.33492,3.29703 -0.69776,6.04904 -0.97814,7.97874 -0.1402,0.96485 -0.25969,1.724 -0.34426,2.24243 -0.0423,0.25921 -0.0759,0.45825 -0.0989,0.59274 -0.0115,0.0673 -0.0204,0.11836 -0.0264,0.15279 -0.003,0.0172 -0.005,0.0303 -0.007,0.0391 -0.002,0.009 -0.002,0.0134 -0.002,0.0137 0,0 0,1e-5 0,1e-5 -15.64557,0.34388 -31.27204,0.8577 -47.24189,2.0041 m 18.55037,-5.63073 c -5.80768,-0.32665 -11.66757,-0.5989 -17.5762,-0.83126 0,0 0,-10e-6 0,-10e-6 -0.001,-0.008 -0.62663,-4.1755 -1.11281,-10.36804 -0.48617,-6.19253 -0.8471,-14.40076 -0.26012,-22.57321 0.29349,-4.08623 0.82646,-8.1657 1.71236,-11.98823 0.8859,-3.82252 2.12568,-7.38836 3.82976,-10.44486 0.75841,-1.36031 1.60865,-2.61968 2.55928,-3.75559 m -8.95348,56.99195 c -0.16023,-1.44817 -0.32339,-3.17064 -0.4561,-5.10239 -0.41282,-6.00893 -0.51304,-14.05075 0.5795,-22.09993 0.54626,-4.02459 1.38659,-8.04928 2.6124,-11.81606 1.22582,-3.76678 2.83608,-7.27577 4.92215,-10.26876 2.08606,-2.99298 4.64633,-5.47086 7.79247,-7.16757 3.14613,-1.6967 6.87845,-2.61299 11.34228,-2.461 4.46385,0.152 8.20913,1.34475 11.37505,3.33542 2.19123,1.37781 4.10573,3.13847 5.78754,5.20249 m -23.15819,-8.18523 c 2.07785,-0.62429 4.3673,-0.9528 6.88996,-0.93702 4.25494,0.0266 7.79233,1.04885 10.73689,2.82927 2.94457,1.78041 5.29527,4.31548 7.16176,7.33243 1.8665,3.01696 3.24814,6.51418 4.25292,10.22305 1.00478,3.70887 1.63266,7.62899 1.99479,11.50996 0.72424,7.76194 0.38869,15.35447 -0.11616,20.9836 -0.25242,2.81457 -0.5479,5.1421 -0.78018,6.76826 -0.11614,0.81309 -0.21653,1.45083 -0.288,1.88595 -0.0357,0.21755 -0.0642,0.38445 -0.0839,0.49719 -0.01,0.0564 -0.0174,0.0992 -0.0226,0.12807 -0.003,0.0144 -0.005,0.0254 -0.006,0.0328 -0.001,0.007 -0.002,0.0112 -0.002,0.0114 -1e-5,10e-6 -1e-5,10e-6 -1e-5,10e-6 -3.67826,-0.53588 -7.3511,-1.0935 -11.01588,-1.67011 m 10.9625,-15.85314 c -0.0794,2.50269 -0.20792,4.85138 -0.35631,6.97012 -0.22593,3.22585 -0.49787,5.91876 -0.71363,7.80658 -0.10788,0.94391 -0.20173,1.68648 -0.26874,2.19355 -0.0335,0.25353 -0.0603,0.4482 -0.0788,0.57973 -0.009,0.0658 -0.0164,0.11576 -0.0212,0.14944 -0.002,0.0168 -0.004,0.0296 -0.006,0.0382 -0.001,0.009 -0.002,0.0131 -0.002,0.0134 -1e-5,10e-6 -1e-5,10e-6 -1e-5,10e-6 -15.54232,-0.005 -30.98483,0.13087 -46.29107,0.65497 0,0 0,0 -10e-6,-10e-6 -9.9e-4,-0.008 -0.49872,-3.8784 -0.69094,-9.59085 -0.19222,-5.71245 -0.0732,-13.24908 1.14769,-20.60311 0.0321,-0.19314 0.0649,-0.38616 0.0985,-0.57904"
         style="fill:none;stroke:#ffffff;stroke-width:1px;stroke-linecap:butt;stroke-linejoin:miter;stroke-opacity:1"
         inkscape:connector-curvature="0" />
      <path
         inkscape:path-effect="#path-effect3839"
         transform="matrix(0.67269831,0,0,0.87201638,308.66794,72.60235)"
         d="m 10.276823,341.3015 c -1.1434773,2.58269 -2.9674946,4.89963 -5.2965199,6.81826 -4.18022756,3.44363 -9.9884811,5.60117 -16.4140041,5.69184 -6.425523,0.0907 -12.249704,-1.89786 -16.454321,-5.14986 -4.204618,-3.252 -6.791885,-7.76915 -6.740628,-12.75514 0.05126,-4.98599 2.734086,-9.49747 7.06006,-12.73542 1.614788,-1.20865 3.458455,-2.23972 5.479525,-3.051 m -3.458313,21.22451 c 0.405247,-4.35039 2.781672,-8.24141 6.459189,-11.16804 4.217317,-3.3562 10.1540999,-5.43986 16.845345,-5.47195 6.6912451,-0.0321 12.867352,1.99076 17.451171,5.26962 4.583819,3.27885 7.562123,7.81435 7.973125,12.82094 0.223381,2.7211 -0.327955,5.30149 -1.474576,7.61519 m 1.935335,-7.52762 c -1.055113,1.55777 -2.38147,2.98185 -3.932507,4.23481 -4.269496,3.44898 -10.2408028,5.59984 -16.9568763,5.66283 -6.7160735,0.063 -12.9059897,-1.96917 -17.5102657,-5.27242 -4.604277,-3.30326 -7.606813,-7.87667 -8.05989,-12.93294 -0.453076,-5.05628 1.697944,-9.64354 5.335632,-12.98111 0.723713,-0.66401 1.506625,-1.27845 2.340404,-1.83705 m -17.193964,25.42353 c 0.543831,-4.52835 3.10153,-8.57612 6.98612,-11.62036 4.371823,-3.42607 10.424533,-5.57358 17.1922689,-5.66923 6.7677355,-0.0956 12.9717693,1.87368 17.5753325,5.09847 4.6035636,3.2248 7.5913066,7.7086 8.0210906,12.64994 0.429783,4.94134 -1.750948,9.40235 -5.426295,12.57068 -3.3458322,2.88427 -7.9377597,4.69847 -12.97411277,4.81692 M 14.364023,349.09919 c -1.14406,1.80989 -2.656063,3.44601 -4.4574077,4.84709 -4.231991,3.29163 -10.06122228,5.28587 -16.4641115,5.17862 -6.4028888,-0.10725 -12.1666248,-2.29541 -16.2983148,-5.75506 -4.131689,-3.45965 -6.636686,-8.18262 -6.486491,-13.4203 0.150195,-5.23769 2.937376,-10.0147 7.390966,-13.6082 3.227074,-2.60384 7.327618,-4.58399 11.924475,-5.65172 m -15.326801,15.86697 c 1.255773,-2.50609 3.254801,-4.76684 5.785925,-6.62482 4.291466,-3.15016 10.1102729,-5.14627 16.4013466,-5.25128 6.2910738,-0.105 11.8650449,1.7053 15.7815654,4.73063 3.91652,3.02533 6.189945,7.27624 5.763654,11.94719 -0.42629,4.67095 -3.501936,8.85263 -8.311602,11.70652 -0.5573863,0.33073 -1.13793,0.64375 -1.740111,0.93783 m 8.431441,-5.13952 c -0.552888,4.43801 -3.074525,8.38811 -6.8541017,11.30115 -4.2480168,3.27407 -10.08245536,5.23319 -16.4785581,5.07012 -6.3961022,-0.16308 -12.1433202,-2.41642 -16.2577652,-5.93964 -4.114445,-3.52322 -6.601707,-8.30654 -6.433565,-13.60895 0.121108,-3.81919 1.608473,-7.39602 4.101619,-10.46811 m -6.514563,9.91216 c -0.738679,-1.79606 -1.111679,-3.73675 -1.044778,-5.7664 0.162877,-4.9413 2.911401,-9.46647 7.270265,-12.80206 4.358865,-3.33559 10.32039,-5.48729 16.8870754,-5.70539 6.5666856,-0.21809 12.4997887,1.53964 16.8151269,4.53729 3.8921177,2.70366 6.4651637,6.42206 6.9961877,10.56026 M 7.3350369,323.63485 c 0.3134454,0.20758 0.6192207,0.423 0.916903,0.64589 4.0714571,3.0486 6.6233331,7.48858 6.6016401,12.48262 -0.02169,4.99405 -2.612655,9.59808 -6.756618,13.05299 -4.1439627,3.4549 -9.8358248,5.76722 -16.0482343,6.1923 -6.2124097,0.42509 -11.7709977,-1.11954 -15.7108637,-3.91751 -3.939865,-2.79797 -6.270383,-6.86442 -5.940298,-11.35154 0.228262,-3.10294 1.707834,-5.98689 4.130294,-8.35458 m 40.609493,21.99981 c -1.250448,2.92285 -3.441727,5.51343 -6.2869502,7.54064 -4.3408047,3.0928 -10.1992316,4.87657 -16.5213335,4.52342 -6.3221023,-0.35315 -11.9143243,-2.78135 -15.8474613,-6.4851 -3.933136,-3.70375 -6.22042,-8.66391 -5.813122,-14.18747 0.407298,-5.52356 3.461799,-10.59877 8.236802,-14.58746 4.176289,-3.48856 9.662538,-6.13793 15.7857949,-7.48415 m -22.0614949,13.3153 c 1.236575,-2.93044 3.320662,-5.54013 6.00983,-7.64205 4.328731,-3.38343 10.22269,-5.44783 16.6516689,-5.38949 6.4289788,0.0583 12.1783741,2.22488 16.2857181,5.66708 4.107343,3.4422 6.578512,8.15341 6.390638,13.37235 -0.187874,5.21894 -3.013362,9.97381 -7.502393,13.52412 -1.8859003,1.49153 -4.0646103,2.76954 -6.4611516,3.77586"
         sodipodi:ry="18.121033"
         sodipodi:rx="23.490227"
         sodipodi:cy="340.27274"
         sodipodi:cx="-3.3557467"
         id="path3837"
         style="fill:none;stroke:#ffffff;stroke-width:2;stroke-linecap:butt;stroke-linejoin:miter;stroke-miterlimit:4;stroke-opacity:1;stroke-dasharray:none"
         sodipodi:type="arc" />
    </g>
    <path
       inkscape:original-d="m -416.01318,712.58338 c 0,0 -8.152,-57.06398 20.96229,-57.06398 29.11426,0 19.79769,58.22856 19.79769,58.22856 l -40.75998,-1.16458 z"
       inkscape:path-effect="#path-effect3857"
       id="path3847"
       d="m -415.38209,708.3208 c -0.0823,-0.74207 -0.16376,-1.53629 -0.24103,-2.37529 -0.47948,-5.20665 -0.79182,-12.13887 -0.19215,-19.02729 0.29984,-3.44421 0.82642,-6.87745 1.66909,-10.08059 0.84268,-3.20314 2.00163,-6.17668 3.56498,-8.70063 1.56334,-2.52394 3.53192,-4.59966 5.98475,-5.99203 2.45284,-1.39238 5.39033,-2.10183 8.87135,-1.86215 3.48104,0.23969 6.37382,1.36972 8.75097,3.19279 2.37715,1.82307 4.23716,4.34165 5.65437,7.35435 0.0194,0.0412 0.0387,0.0824 0.0579,0.12381 m -12.6407,-16.28855 c 0.15915,-0.009 0.31949,-0.0153 0.48102,-0.0203 3.55683,-0.10892 6.53646,0.71406 9.01465,2.22142 2.47819,1.50737 4.45538,3.69914 6.01998,6.33896 1.5646,2.63982 2.71716,5.72813 3.55039,9.03507 0.83323,3.30695 1.34721,6.83252 1.63437,10.34998 0.57433,7.0349 0.23793,14.02854 -0.25403,19.24033 -0.24598,2.6059 -0.52998,4.76866 -0.7528,6.28102 -0.11142,0.75618 -0.20749,1.34983 -0.27577,1.75503 -0.0341,0.20261 -0.0613,0.35809 -0.08,0.46318 -0.009,0.0525 -0.0166,0.0925 -0.0215,0.11942 -0.002,0.0135 -0.004,0.0237 -0.006,0.0306 -0.001,0.007 -0.002,0.0105 -0.002,0.0107 0,1e-5 0,2e-5 0,2e-5 -0.80501,-0.065 -1.61036,-0.1309 -2.4161,-0.19774 m -0.97897,-3.53479 c -0.0229,1.40394 -0.0674,2.73187 -0.12485,3.96502 -0.12916,2.77194 -0.32348,5.06508 -0.48449,6.66768 -0.0805,0.80129 -0.15273,1.42995 -0.20476,1.859 -0.026,0.21453 -0.047,0.37914 -0.0615,0.4904 -0.007,0.0556 -0.0129,0.0979 -0.0167,0.12642 -0.002,0.0143 -0.003,0.0251 -0.004,0.0324 -0.001,0.007 -0.002,0.0111 -0.002,0.0114 -10e-6,10e-6 -10e-6,2e-5 -10e-6,2e-5 -13.30225,-0.36983 -26.82916,-1.14242 -40.35944,-2.16942 0,0 0,-1e-5 0,-2e-5 -4e-5,-2.7e-4 -5.5e-4,-0.004 -0.002,-0.0117 -9.8e-4,-0.008 -0.002,-0.0186 -0.004,-0.0332 -0.004,-0.0292 -0.009,-0.0726 -0.0164,-0.12962 -0.0142,-0.11406 -0.0347,-0.28279 -0.0602,-0.50261 -0.051,-0.43965 -0.12191,-1.08364 -0.2017,-1.90362 -0.15958,-1.63996 -0.35493,-3.98408 -0.49644,-6.80634 -0.17776,-3.54507 -0.27059,-7.84545 -0.0956,-12.44321 m 11.54649,9.09592 c -0.20845,-5.10769 -0.24071,-11.88706 0.50877,-18.78075 0.38529,-3.54392 0.97947,-7.1142 1.876,-10.4814 0.89654,-3.3672 2.09596,-6.53062 3.69288,-9.25863 1.59692,-2.72802 3.59216,-5.0198 6.07103,-6.65324 2.47888,-1.63345 5.44137,-2.60876 8.95569,-2.71981 3.51434,-0.11105 6.43861,0.69667 8.85247,2.18528 2.41386,1.48861 4.31581,3.65661 5.78892,6.27031 1.47311,2.61369 2.51755,5.67335 3.22804,8.95701 0.50119,2.31635 0.83647,4.74443 1.04146,7.20816 m -16.39712,-25.13926 c 0.0993,0.063 0.19787,0.12687 0.2957,0.19167 2.60825,1.72773 4.69459,4.10411 6.35689,6.90813 1.6623,2.80403 2.8994,6.03325 3.80197,9.45329 0.90256,3.42004 1.47028,7.03016 1.7976,10.60626 0.65463,7.1522 0.34647,14.16115 -0.12372,19.37594 -0.23509,2.60739 -0.51025,4.76844 -0.72625,6.27995 -0.108,0.75575 -0.20126,1.34907 -0.26756,1.75407 -0.0332,0.2025 -0.0596,0.35791 -0.0777,0.46295 -0.009,0.0525 -0.0161,0.0924 -0.0209,0.11937 -0.002,0.0135 -0.004,0.0237 -0.005,0.0306 -0.001,0.007 -0.002,0.0105 -0.002,0.0107 -10e-6,1e-5 -10e-6,1e-5 -10e-6,1e-5 -8.49816,-0.69275 -17.01321,-1.4761 -25.50253,-2.27564 m 24.78288,0.46009 c -11.96273,-0.25667 -24.20403,-0.40371 -36.55349,-0.40135 0,0 0,0 -10e-6,-1e-5 -3e-5,-2.5e-4 -5.6e-4,-0.004 -0.002,-0.0108 -9.9e-4,-0.007 -0.002,-0.0172 -0.004,-0.0308 -0.004,-0.0271 -0.009,-0.0673 -0.0167,-0.12015 -0.0145,-0.1057 -0.0355,-0.26206 -0.0616,-0.46565 -0.0522,-0.40718 -0.12504,-1.00331 -0.20777,-1.76074 -0.16546,-1.51486 -0.37085,-3.67495 -0.53033,-6.2574 -0.31894,-5.16489 -0.45807,-12.0144 0.3165,-18.79176 0.38728,-3.38869 1.00402,-6.76053 1.9429,-9.90167 0.0146,-0.0489 0.0293,-0.0978 0.0441,-0.14655 m -4.89488,36.16204 c -0.0163,-0.16282 -0.0326,-0.32745 -0.0487,-0.49382 -0.51966,-5.37034 -0.89092,-12.57144 -0.36735,-19.85033 0.26179,-3.63945 0.74616,-7.2967 1.54387,-10.74385 0.79771,-3.44715 1.90912,-6.68358 3.4235,-9.48111 1.51438,-2.79754 3.43301,-5.15491 5.83101,-6.85809 2.398,-1.70319 5.27589,-2.75199 8.6785,-2.95997 3.40263,-0.20797 6.2234,0.51014 8.52523,1.9024 1.39673,0.8448 2.60186,1.93734 3.62941,3.22152 m -9.66418,-10.21635 c 0.49884,-0.0238 1.01045,-0.0286 1.53506,-0.0134 3.47663,0.10024 6.39297,1.06168 8.80967,2.68634 2.41669,1.62465 4.33424,3.91053 5.83427,6.63006 1.50003,2.71954 2.58343,5.87138 3.34084,9.2247 0.75741,3.35333 1.18888,6.9078 1.38702,10.4413 0.39628,7.067 -0.15108,14.04577 -0.82908,19.25487 -0.339,2.60455 -0.70798,4.76807 -0.99249,6.28225 -0.14226,0.75709 -0.2633,1.35181 -0.34877,1.75783 -0.0324,0.15375 -0.0596,0.28043 -0.081,0.37862 m -6.34555,-16.71201 c 0.01,2.05628 -0.0356,3.99949 -0.10871,5.76072 -0.11164,2.69001 -0.28815,4.95518 -0.43581,6.5471 -0.0738,0.79596 -0.1405,1.4236 -0.18869,1.85251 -0.0241,0.21446 -0.0436,0.37924 -0.0571,0.49065 -0.007,0.0557 -0.012,0.0981 -0.0156,0.12662 -0.002,0.0143 -0.003,0.0251 -0.004,0.0324 -9.3e-4,0.007 -0.001,0.0111 -0.001,0.0114 0,0 0,10e-6 0,10e-6 -13.17862,-0.34386 -26.49462,-0.16545 -39.67508,0.35524 0,0 0,0 0,-10e-6 -3e-5,-2.4e-4 -4.5e-4,-0.004 -0.001,-0.0104 -7.9e-4,-0.007 -0.002,-0.0165 -0.003,-0.0296 -0.003,-0.026 -0.007,-0.0646 -0.0131,-0.11537 -0.0114,-0.10151 -0.0277,-0.25165 -0.0477,-0.4471 -0.04,-0.39091 -0.0946,-0.96308 -0.15323,-1.68948 -0.11717,-1.45278 -0.25024,-3.52223 -0.31023,-5.99069 -0.12,-4.93693 0.0559,-11.46099 1.24313,-17.90531 0.42604,-2.31254 0.9818,-4.61596 1.69776,-6.83544 m -1.29237,37.3152 c -0.0319,-0.24693 -0.0661,-0.52031 -0.10211,-0.81857 -0.18513,-1.53556 -0.41491,-3.73093 -0.59358,-6.37544 -0.35735,-5.28903 -0.50582,-12.38267 0.28306,-19.53133 0.39444,-3.57433 1.02214,-7.16049 1.96982,-10.5317 0.94767,-3.3712 2.21515,-6.5271 3.8889,-9.24064 1.67376,-2.71355 3.75368,-4.98435 6.32801,-6.59098 2.57432,-1.60664 5.64323,-2.54936 9.29662,-2.61457 3.65341,-0.0652 6.70417,0.78655 9.24681,2.3208 2.54264,1.53424 4.57734,3.75025 6.19692,6.41739 0.95414,1.57128 1.76414,3.29929 2.44864,5.13802 m -15.94059,-20.98994 c 0.0799,0.003 0.16009,0.006 0.24059,0.009 3.48124,0.15665 6.40149,1.17662 8.82225,2.86691 2.42076,1.69029 4.34253,4.04991 5.84756,6.86021 1.50503,2.81031 2.59419,6.07019 3.35852,9.55293 0.76433,3.48273 1.20391,7.18814 1.41139,10.89082 0.41497,7.40536 -0.10773,14.80572 -0.76311,20.3776 -0.3277,2.78594 -0.68615,5.11331 -0.96298,6.74556 -0.13841,0.81613 -0.25633,1.4584 -0.33964,1.8971 -0.0417,0.21935 -0.0747,0.38781 -0.0973,0.50169 -0.0113,0.0569 -0.02,0.10024 -0.026,0.12943 -0.003,0.0146 -0.005,0.0257 -0.007,0.0331 -0.002,0.007 -0.002,0.0114 -0.002,0.0117 0,10e-6 0,2e-5 0,2e-5 -4.57149,-0.0152 -9.17172,-0.0125 -13.81028,0.0179 m 18.07757,-11.17836 c -0.0867,1.83223 -0.2068,3.39385 -0.31463,4.57921 -0.0717,0.78833 -0.13802,1.41021 -0.1862,1.83524 -0.0241,0.21251 -0.0437,0.37582 -0.0572,0.48623 -0.007,0.0552 -0.012,0.0972 -0.0156,0.12549 -0.002,0.0142 -0.003,0.0249 -0.004,0.0322 -9.4e-4,0.007 -0.001,0.011 -0.001,0.0113 0,10e-6 0,2e-5 0,2e-5 -13.1904,-0.46363 -26.89955,-0.32916 -40.83459,0.25713 0,0 0,0 0,-10e-6 -4e-5,-2.4e-4 -6.7e-4,-0.004 -0.002,-0.0104 -0.001,-0.007 -0.003,-0.0165 -0.005,-0.0294 -0.005,-0.0259 -0.0114,-0.0643 -0.0201,-0.11476 -0.0175,-0.10097 -0.0429,-0.25031 -0.0748,-0.44469 -0.0638,-0.38876 -0.15366,-0.95769 -0.2584,-1.67952 -0.20948,-1.44365 -0.47886,-3.49863 -0.71881,-5.94432 -0.47988,-4.8914 -0.84816,-11.33356 -0.32183,-17.6533 0.26317,-3.15987 0.75165,-6.29225 1.56511,-9.19775 0.21829,-0.7797 0.45996,-1.54305 0.72686,-2.28613 m -6.58053,42.78414 c -0.11041,-1.12047 -0.21812,-2.39885 -0.30624,-3.80083 -0.32913,-5.23589 -0.36865,-12.19371 0.6538,-19.09255 0.51123,-3.44941 1.28416,-6.88464 2.39691,-10.08754 1.11275,-3.20289 2.56418,-6.17404 4.43197,-8.69461 1.8678,-2.52057 4.14992,-4.59198 6.94797,-5.97945 2.79805,-1.38747 6.11202,-2.09131 10.08728,-1.84483 3.97529,0.24649 7.32092,1.38224 10.16978,3.21046 2.84886,1.82822 5.20462,4.35147 7.19058,7.36808 0.38203,0.58029 0.75028,1.17877 1.10549,1.79392 m -18.45662,-15.4711 c 0.1097,0.003 0.21996,0.008 0.33078,0.0128 3.64408,0.16714 6.70959,1.18807 9.28215,2.87457 2.57256,1.6865 4.65378,4.03705 6.34493,6.83149 1.69114,2.79444 2.99296,6.03138 4.00428,9.48262 1.01132,3.45125 1.73245,7.11654 2.25221,10.77188 1.03953,7.31069 1.28555,14.5848 1.29925,20.04845 0.007,2.73182 -0.0478,5.01035 -0.10494,6.60752 -0.0286,0.79858 -0.0579,1.42675 -0.0802,1.85576 -0.0112,0.21451 -0.0206,0.37923 -0.0272,0.49057 -0.003,0.0557 -0.006,0.098 -0.008,0.12654 -9.1e-4,0.0143 -0.002,0.0251 -0.002,0.0324 -4.8e-4,0.007 -7.4e-4,0.0111 -7.6e-4,0.0114 0,10e-6 0,10e-6 0,10e-6 -1.30127,-0.0374 -2.59844,-0.0738 -3.89149,-0.10874 m 7.61788,-24.26746 c -0.0945,0.90731 -0.19425,1.78107 -0.29607,2.61336 -0.31949,2.6113 -0.65983,4.81398 -0.92125,6.36251 -0.13072,0.77426 -0.24163,1.38501 -0.31999,1.8024 -0.0392,0.2087 -0.0702,0.36907 -0.0915,0.4775 -0.0106,0.0542 -0.0189,0.0954 -0.0244,0.12323 -0.003,0.0139 -0.005,0.0245 -0.006,0.0316 -0.001,0.007 -0.002,0.0109 -0.002,0.0111 -1e-5,10e-6 -1e-5,2e-5 -1e-5,2e-5 -14.12226,-0.70418 -28.24827,-0.83634 -42.65957,-0.73552 0,0 -1e-5,-10e-6 -1e-5,-2e-5 -5e-5,-2.4e-4 -8.1e-4,-0.004 -0.002,-0.0108 -0.001,-0.007 -0.004,-0.0171 -0.006,-0.0306 -0.006,-0.0269 -0.0138,-0.0668 -0.0245,-0.11923 -0.0213,-0.10491 -0.0524,-0.26009 -0.0918,-0.46213 -0.0787,-0.40408 -0.19035,-0.99561 -0.32316,-1.74708 -0.26562,-1.50293 -0.6157,-3.64525 -0.96019,-6.2075 -0.61583,-4.58039 -1.21829,-10.49873 -1.28255,-16.55036"
       style="fill:none;stroke:#ffffff;stroke-width:0.86759442px;stroke-linecap:butt;stroke-linejoin:miter;stroke-opacity:1"
       inkscape:connector-curvature="0" />
    <path
       inkscape:path-effect="#path-effect3839"
       transform="matrix(0.58362933,0,0,0.75655658,-395.10361,374.96039)"
       d="m 10.276823,341.3015 c -1.1434773,2.58269 -2.9674946,4.89963 -5.2965199,6.81826 -4.18022756,3.44363 -9.9884811,5.60117 -16.4140041,5.69184 -6.425523,0.0907 -12.249704,-1.89786 -16.454321,-5.14986 -4.204618,-3.252 -6.791885,-7.76915 -6.740628,-12.75514 0.05126,-4.98599 2.734086,-9.49747 7.06006,-12.73542 1.614788,-1.20865 3.458455,-2.23972 5.479525,-3.051 m -3.458313,21.22451 c 0.405247,-4.35039 2.781672,-8.24141 6.459189,-11.16804 4.217317,-3.3562 10.1540999,-5.43986 16.845345,-5.47195 6.6912451,-0.0321 12.867352,1.99076 17.451171,5.26962 4.583819,3.27885 7.562123,7.81435 7.973125,12.82094 0.223381,2.7211 -0.327955,5.30149 -1.474576,7.61519 m 1.935335,-7.52762 c -1.055113,1.55777 -2.38147,2.98185 -3.932507,4.23481 -4.269496,3.44898 -10.2408028,5.59984 -16.9568763,5.66283 -6.7160735,0.063 -12.9059897,-1.96917 -17.5102657,-5.27242 -4.604277,-3.30326 -7.606813,-7.87667 -8.05989,-12.93294 -0.453076,-5.05628 1.697944,-9.64354 5.335632,-12.98111 0.723713,-0.66401 1.506625,-1.27845 2.340404,-1.83705 m -17.193964,25.42353 c 0.543831,-4.52835 3.10153,-8.57612 6.98612,-11.62036 4.371823,-3.42607 10.424533,-5.57358 17.1922689,-5.66923 6.7677355,-0.0956 12.9717693,1.87368 17.5753325,5.09847 4.6035636,3.2248 7.5913066,7.7086 8.0210906,12.64994 0.429783,4.94134 -1.750948,9.40235 -5.426295,12.57068 -3.3458322,2.88427 -7.9377597,4.69847 -12.97411277,4.81692 M 14.364023,349.09919 c -1.14406,1.80989 -2.656063,3.44601 -4.4574077,4.84709 -4.231991,3.29163 -10.06122228,5.28587 -16.4641115,5.17862 -6.4028888,-0.10725 -12.1666248,-2.29541 -16.2983148,-5.75506 -4.131689,-3.45965 -6.636686,-8.18262 -6.486491,-13.4203 0.150195,-5.23769 2.937376,-10.0147 7.390966,-13.6082 3.227074,-2.60384 7.327618,-4.58399 11.924475,-5.65172 m -15.326801,15.86697 c 1.255773,-2.50609 3.254801,-4.76684 5.785925,-6.62482 4.291466,-3.15016 10.1102729,-5.14627 16.4013466,-5.25128 6.2910738,-0.105 11.8650449,1.7053 15.7815654,4.73063 3.91652,3.02533 6.189945,7.27624 5.763654,11.94719 -0.42629,4.67095 -3.501936,8.85263 -8.311602,11.70652 -0.5573863,0.33073 -1.13793,0.64375 -1.740111,0.93783 m 8.431441,-5.13952 c -0.552888,4.43801 -3.074525,8.38811 -6.8541017,11.30115 -4.2480168,3.27407 -10.08245536,5.23319 -16.4785581,5.07012 -6.3961022,-0.16308 -12.1433202,-2.41642 -16.2577652,-5.93964 -4.114445,-3.52322 -6.601707,-8.30654 -6.433565,-13.60895 0.121108,-3.81919 1.608473,-7.39602 4.101619,-10.46811 m -6.514563,9.91216 c -0.738679,-1.79606 -1.111679,-3.73675 -1.044778,-5.7664 0.162877,-4.9413 2.911401,-9.46647 7.270265,-12.80206 4.358865,-3.33559 10.32039,-5.48729 16.8870754,-5.70539 6.5666856,-0.21809 12.4997887,1.53964 16.8151269,4.53729 3.8921177,2.70366 6.4651637,6.42206 6.9961877,10.56026 M 7.3350369,323.63485 c 0.3134454,0.20758 0.6192207,0.423 0.916903,0.64589 4.0714571,3.0486 6.6233331,7.48858 6.6016401,12.48262 -0.02169,4.99405 -2.612655,9.59808 -6.756618,13.05299 -4.1439627,3.4549 -9.8358248,5.76722 -16.0482343,6.1923 -6.2124097,0.42509 -11.7709977,-1.11954 -15.7108637,-3.91751 -3.939865,-2.79797 -6.270383,-6.86442 -5.940298,-11.35154 0.228262,-3.10294 1.707834,-5.98689 4.130294,-8.35458 m 40.609493,21.99981 c -1.250448,2.92285 -3.441727,5.51343 -6.2869502,7.54064 -4.3408047,3.0928 -10.1992316,4.87657 -16.5213335,4.52342 -6.3221023,-0.35315 -11.9143243,-2.78135 -15.8474613,-6.4851 -3.933136,-3.70375 -6.22042,-8.66391 -5.813122,-14.18747 0.407298,-5.52356 3.461799,-10.59877 8.236802,-14.58746 4.176289,-3.48856 9.662538,-6.13793 15.7857949,-7.48415 m -22.0614949,13.3153 c 1.236575,-2.93044 3.320662,-5.54013 6.00983,-7.64205 4.328731,-3.38343 10.22269,-5.44783 16.6516689,-5.38949 6.4289788,0.0583 12.1783741,2.22488 16.2857181,5.66708 4.107343,3.4422 6.578512,8.15341 6.390638,13.37235 -0.187874,5.21894 -3.013362,9.97381 -7.502393,13.52412 -1.8859003,1.49153 -4.0646103,2.76954 -6.4611516,3.77586"
       sodipodi:ry="18.121033"
       sodipodi:rx="23.490227"
       sodipodi:cy="340.27274"
       sodipodi:cx="-3.3557467"
       id="path3849"
       style="fill:none;stroke:#ffffff;stroke-width:2;stroke-linecap:butt;stroke-linejoin:miter;stroke-miterlimit:4;stroke-opacity:1;stroke-dasharray:none"
       sodipodi:type="arc" />
    <g
       id="g3863"
       transform="matrix(0.91962828,0,0,0.91962828,-802.4936,286.6788)">
      <path
         inkscape:original-d="m 416.1126,536.91948 c 0,0 -5.36919,37.58437 6.71149,55.03425 12.08069,17.44988 10.73839,20.13448 10.73839,20.13448 l 91.27632,0 c 0,0 -10.73839,-8.05379 -17.44989,-33.55747 -6.71149,-25.50367 -5.36919,-41.61126 -5.36919,-41.61126 l -85.90712,0 z"
         inkscape:path-effect="#path-effect3853"
         id="path3851"
         d="m 418.48176,551.29719 c -0.13716,3.64248 -0.23668,8.61366 -0.058,14.14537 0.18389,5.69346 0.66312,11.9799 1.80509,17.95156 1.14197,5.97167 2.95415,11.62396 5.83852,16.02768 5.73937,8.7626 8.20706,13.86299 9.28442,16.75632 1.07736,2.89334 0.73629,3.59424 0.72855,3.60936 -8e-5,1.6e-4 -1.3e-4,2.5e-4 -1.4e-4,2.5e-4 2.4023,0.0253 4.80338,0.0491 7.20507,0.0702 M 429.9748,598.82569 c 1.90869,3.2437 3.04557,5.54834 3.70443,7.16011 1.15683,2.82995 0.84119,3.52454 0.83396,3.53937 -8e-5,1.7e-4 -1.2e-4,2.5e-4 -1.2e-4,2.5e-4 19.85411,-0.1402 40.44258,0.17197 61.32751,0.58355 m -21.9277,5.72907 c 14.95644,-0.26874 30.61314,-0.59665 46.52874,-1.15444 0,0 -10e-6,-10e-6 -5e-5,-4e-5 -0.0111,-0.009 -1.92617,-1.55972 -4.58193,-5.40164 -2.65575,-3.84192 -6.04214,-9.96796 -9.00939,-19.25437 m 12.86523,17.74735 c -3.08403,-5.04943 -6.74167,-12.8832 -9.65434,-24.52291 -3.14075,-12.55116 -4.45405,-22.87734 -4.90441,-30.01577 -0.22517,-3.56922 -0.24314,-6.3476 -0.20401,-8.23548 0.0196,-0.94395 0.0533,-1.66535 0.0821,-2.15186 0.0144,-0.24326 0.0276,-0.42778 0.0373,-0.55202 0.005,-0.0621 0.009,-0.10915 0.0115,-0.14092 0.003,-0.0318 0.004,-0.0483 0.004,-0.0493 1e-5,-3e-5 1e-5,-5e-5 1e-5,-5e-5 -8.45169,0.11823 -16.85275,0.28179 -25.12536,0.54717 m 17.41221,-7.41661 c 7.8e-4,-0.28984 0.004,-0.53921 0.008,-0.74723 0.005,-0.25258 0.0109,-0.44417 0.0158,-0.57317 0.002,-0.0645 0.005,-0.11334 0.006,-0.14633 0.002,-0.033 0.002,-0.0501 0.003,-0.0512 10e-6,-4e-5 10e-6,-5e-5 10e-6,-5e-5 -28.49126,-0.66284 -54.09029,-0.77195 -78.50389,-1.77571 m 21.03834,6.46064 c -8.31203,0.22648 -16.39446,0.19283 -24.29125,-0.0608 6.7e-4,-0.001 0.001,-0.002 0.002,-0.003 0,0 -1e-5,1e-5 -1e-5,2e-5 -10e-4,0.008 -0.29597,2.29572 -0.48875,5.92125 -0.19277,3.62553 -0.27331,8.57707 0.13758,13.92788 0.41089,5.35082 1.3121,11.10158 2.99998,16.4236 1.25481,3.95651 2.94075,7.68063 5.17552,10.83811 m -12.70189,-38.1062 c -0.30518,3.32881 -0.52818,7.32045 -0.48684,11.60221 0.0557,5.76911 0.59508,12.0642 1.96276,17.98667 1.36768,5.92247 3.55448,11.4738 6.86102,15.76204 3.2897,4.26639 5.73448,7.62541 7.52339,10.27007 1.7889,2.64467 2.92444,4.57465 3.63624,5.97507 1.42361,2.80086 1.15806,3.48244 1.15224,3.49705 -7e-5,1.6e-4 -9e-5,2.4e-4 -8e-5,2.3e-4 1.66419,-0.0314 3.33175,-0.0639 5.0024,-0.0973 m -4.55115,-14.95791 c 2.12231,3.35158 3.33025,5.73391 4.02699,7.3926 1.20475,2.86807 0.879,3.57441 0.87186,3.58949 -8e-5,1.7e-4 -1.2e-4,2.5e-4 -1.2e-4,2.5e-4 19.38536,0.14813 37.89806,1.08528 55.92879,2.62586 m -15.81935,1.1754 c 16.41595,0.29948 32.30446,0.006 47.96777,-0.67724 0,0 -2e-5,-2e-5 -5e-5,-4e-5 -0.0136,-0.0107 -2.76016,-2.159 -6.43854,-7.68863 -3.67839,-5.52964 -8.30605,-14.44556 -12.0604,-28.15264 -0.57662,-2.10522 -1.10358,-4.15399 -1.58463,-6.14218 m 11.29401,22.92967 c -2.42917,-4.50532 -4.85346,-10.30378 -6.79304,-17.65806 -3.25179,-12.3298 -4.20863,-22.48452 -4.41355,-29.48784 -0.10246,-3.50165 -0.012,-6.22387 0.10146,-8.0726 0.0567,-0.92437 0.11941,-1.63047 0.16786,-2.10659 0.0242,-0.23806 0.0449,-0.41862 0.0596,-0.54018 0.007,-0.0608 0.0132,-0.10681 0.0172,-0.13789 0.004,-0.0311 0.006,-0.0472 0.006,-0.0482 10e-6,-4e-5 10e-6,-5e-5 10e-6,-5e-5 -9.25898,0.34215 -18.40799,0.78205 -27.49811,1.43656 m 19.95292,1.02091 c -25.82083,0.39231 -53.7899,-0.0172 -81.27519,-0.4726 -4e-4,-5.5e-4 -8e-4,-0.001 -0.001,-0.002 0,0 0,0 0,2e-5 -3.8e-4,0.002 -0.0332,0.21059 -0.0885,0.60091 m 14.67612,-5.63436 c -6.2055,0.17043 -12.53682,0.23664 -18.95867,0.21802 4.8e-4,-9e-5 9.6e-4,-1.9e-4 0.001,-2.9e-4 0,0 0,1e-5 -10e-6,2e-5 -0.001,0.008 -0.29761,2.36011 -0.58898,6.11677 -0.29137,3.75667 -0.58543,8.91101 -0.55466,14.53876 0.0308,5.62775 0.38893,11.72993 1.46532,17.44124 1.0764,5.71132 2.8762,11.03817 5.78553,15.11628 3.37767,4.73458 5.67295,8.29399 7.22816,10.97504 m -16.15528,-50.58023 c -0.10605,3.53496 -0.13827,7.95237 0.0722,12.79676 0.25891,5.95775 0.88534,12.56483 2.23501,18.90638 1.34968,6.34155 3.42404,12.40912 6.58959,17.25286 3.14943,4.81907 5.4501,8.68583 7.12601,11.7421 1.67591,3.05628 2.72614,5.30378 3.3779,6.93196 1.3035,3.25635 1.01328,4.04199 1.00681,4.05918 -7e-5,1.9e-4 -1.1e-4,3e-4 -10e-5,3.2e-4 4.36978,0.56692 8.76227,1.18607 13.18506,1.8594 m -11.66446,-15.03802 c 0.87862,1.84446 1.47565,3.28542 1.87686,4.40774 1.07536,3.00815 0.73905,3.73104 0.73134,3.74677 -9e-5,1.8e-4 -1.3e-4,2.7e-4 -1.4e-4,2.8e-4 20.99034,1.02377 42.33349,1.99232 62.9784,4.24721 m -13.8703,-6.09379 c 14.19927,-0.38585 28.09395,-0.4543 41.73279,-0.40987 0,0 -2e-5,-10e-6 -5e-5,-4e-5 -0.0136,-0.01 -2.68371,-1.93984 -6.34537,-6.86595 -3.66165,-4.9261 -8.31169,-12.83165 -12.4596,-24.86354 m 7.27987,20.25522 c -2.52599,-4.69731 -5.06989,-10.80274 -7.07669,-18.60238 -3.20527,-12.4576 -4.12589,-22.6462 -4.30092,-29.68443 -0.0875,-3.51912 0.0156,-6.25552 0.13804,-8.11447 0.0612,-0.92948 0.12738,-1.63964 0.17822,-2.11853 0.0254,-0.23944 0.047,-0.42107 0.0623,-0.54334 0.008,-0.0611 0.0137,-0.10744 0.0179,-0.1387 0.004,-0.0313 0.007,-0.0475 0.007,-0.0485 10e-6,-3e-5 10e-6,-5e-5 10e-6,-4e-5 -9.18731,0.28569 -18.25387,0.64852 -27.24095,1.1579 m 24.69682,-1.48062 c -26.77753,0.56484 -54.39872,-1.24806 -81.77784,-4.32054 -9e-5,-0.004 -1.7e-4,-0.007 -2.5e-4,-0.0113 0,0 0,1e-5 -1e-5,2e-5 -0.002,0.0121 -0.94502,5.73077 -1.14691,13.37917 m -0.65734,-12.45856 c -0.35911,3.2514 -1.05979,10.90312 -0.86229,19.86508 0.13124,5.9553 0.65934,12.49246 1.93679,18.70392 1.27745,6.21147 3.3027,12.09452 6.42308,16.73387 6.20896,9.23144 9.05131,14.68071 10.31742,17.76733 1.2661,3.08663 0.96579,3.83412 0.95909,3.85035 -7e-5,1.8e-4 -1.1e-4,2.8e-4 -1e-4,2.9e-4 6.90866,0.52113 13.84434,1.12693 20.8099,1.83704 M 430.01585,599.2885 c 1.039,1.88201 1.74455,3.33614 2.21898,4.45757 1.2163,2.875 0.91026,3.56712 0.90333,3.5821 -7e-5,1.6e-4 -1.1e-4,2.5e-4 -1.1e-4,2.5e-4 24.85141,0.0356 50.58728,-0.69136 77.44662,-1.81788 m -32.10854,9.19463 c 13.09836,-0.28199 26.15834,-0.44902 39.3674,-0.62361 0,0 -10e-6,-10e-6 -5e-5,-4e-5 -0.0126,-0.0102 -2.57122,-2.07434 -5.78092,-7.36953 -1.60485,-2.6476 -3.37028,-6.10328 -5.02991,-10.52504 -1.65964,-4.42175 -3.21575,-9.8083 -4.35485,-16.33976 -0.86818,-4.97805 -1.42384,-9.62684 -1.75076,-13.89462 m 6.87363,24.09319 c -1.06125,-3.04274 -2.08924,-6.43397 -3.04304,-10.20724 -3.26818,-12.92909 -4.6872,-23.55973 -5.25445,-30.96921 -0.28362,-3.70475 -0.3573,-6.60255 -0.35861,-8.57519 -6.5e-4,-0.98632 0.0167,-1.74137 0.0343,-2.2508 0.009,-0.25472 0.0177,-0.44803 0.0245,-0.57819 0.003,-0.0651 0.006,-0.11438 0.008,-0.14767 0.002,-0.0333 0.003,-0.0506 0.003,-0.0516 0,-3e-5 0,-5e-5 0,-5e-5 -14.1152,-0.46493 -28.31086,-1.10489 -42.48994,-2.00774 m 30.21002,1.11409 c -24.30293,-1.162 -47.19454,-0.29059 -69.68778,0.84846 0.002,0.002 0.003,0.003 0.005,0.005 0,0 0,1e-5 0,2e-5 -0.002,0.0173 -0.88453,9.89416 -0.0908,22.02776 0.13377,2.04486 0.31447,4.15277 0.55345,6.28634 m -2.66499,-20.44786 c -0.33655,3.78262 -0.6882,9.37035 -0.58455,15.51274 0.0941,5.57547 0.56346,11.60592 1.76435,17.20606 1.20088,5.60014 3.13349,10.77699 6.15532,14.67006 3.00644,3.87324 5.18242,6.8773 6.75533,9.23438 1.57291,2.35707 2.54266,4.06594 3.13613,5.3077 1.18694,2.48353 0.86871,3.09267 0.86156,3.10548 -8e-5,1.4e-4 -1.2e-4,2e-4 -1.2e-4,1.8e-4 6.77971,-0.87196 13.56134,-1.87346 20.34691,-3.01908 m -28.44314,1.41443 c 0.50038,1.01268 0.88121,1.86556 1.16928,2.58172 1.13878,2.83113 0.81916,3.52288 0.81183,3.53769 -8e-5,1.6e-4 -1.3e-4,2.5e-4 -1.3e-4,2.4e-4 30.10841,-0.25285 61.83431,-0.0648 93.76602,-0.23773 0,0 -10e-6,-10e-6 -4e-5,-3e-5 -0.005,-0.004 -0.40032,-0.32388 -1.07471,-1.03195 m -25.75668,-8.23803 c 9.64393,0.40258 19.10497,0.77313 28.44714,1.2081 0,0 -2e-5,-10e-6 -5e-5,-3e-5 -0.0134,-0.009 -2.69912,-1.88934 -6.28804,-6.76363 -1.79446,-2.43715 -3.81683,-5.62088 -5.85178,-9.6605 -2.03495,-4.03962 -4.08349,-8.93783 -5.92269,-14.75074 -2.54689,-8.04962 -4.12097,-14.89463 -5.06736,-20.39001 m 8.53543,25.96429 c -0.0812,-0.27999 -0.16196,-0.56206 -0.24221,-0.84623 -3.60147,-12.75291 -5.09553,-23.02275 -5.72033,-30.12694 -0.3124,-3.5521 -0.40399,-6.31175 -0.41755,-8.18685 -0.007,-0.93755 0.006,-1.65389 0.0206,-2.13697 0.007,-0.24154 0.015,-0.42475 0.021,-0.5481 0.003,-0.0617 0.005,-0.10838 0.007,-0.13992 0.002,-0.0315 0.003,-0.0479 0.003,-0.0489 0,-3e-5 0,-5e-5 0,-5e-5 -9.61007,0.19679 -19.2503,0.45991 -28.9632,0.78501 m 18.35443,2.77674 c -23.93104,-0.7301 -48.13009,-0.53745 -72.02637,-0.56315 5.3e-4,-4e-5 0.001,-7e-5 0.002,-1.1e-4 0,0 0,10e-6 -1e-5,2e-5 -0.002,0.0132 -0.77902,6.08429 -0.84874,14.41504"
         style="fill:none;stroke:#ffffff;stroke-width:1px;stroke-linecap:butt;stroke-linejoin:miter;stroke-opacity:1"
         inkscape:connector-curvature="0" />
      <path
         inkscape:original-d="m 437.58938,567.79235 17.44988,20.13448 30.87287,-28.18827"
         inkscape:path-effect="#path-effect3861"
         id="path3859"
         d="m 439.91626,576.26097 c 4.21177,4.9315 8.49125,9.87461 12.81664,14.81316 7.86557,-7.48899 15.85015,-14.9898 23.86286,-22.56995 m -33.45482,-0.0486 c 3.92923,4.40889 7.89475,8.92137 11.89309,13.5209 9.95838,-8.97587 20.07716,-17.5263 30.3187,-25.83019 m -39.79676,17.26469 c 4.76694,5.32279 9.50203,10.64306 14.21367,15.94598 8.37352,-7.84411 16.68875,-15.73133 24.9785,-23.71972 m -37.88255,10.94561 c 4.07837,4.74815 8.08788,9.40757 12.03884,13.99463 7.80713,-7.16437 15.43471,-14.55066 22.93814,-22.07105 m -46.24214,1.33397 c 5.26969,5.98466 10.59153,11.99657 15.96987,18.02421 9.76545,-8.7597 19.67821,-17.47839 29.75659,-26.20456"
         style="fill:none;stroke:#ffffff;stroke-width:1px;stroke-linecap:butt;stroke-linejoin:miter;stroke-opacity:1"
         inkscape:connector-curvature="0" />
    </g>
    <g
       id="g5260"
       inkscape:export-xdpi="165.44003"
       inkscape:export-ydpi="165.44003"
       transform="matrix(0.86759446,0,0,0.86759446,-614.74219,316.50303)">
      <path
         inkscape:original-d="m 416.42668,568.1828 c 3.42381,-27.21473 33.32832,-43.01478 59.98283,-36.54168 26.65451,6.4731 43.01477,33.32832 36.54167,59.98283 -6.47309,26.65451 -33.32832,43.01478 -59.98283,36.54168 -22.48477,-5.46047 -38.2199,-25.72454 -37.94086,-48.86118"
         inkscape:path-effect="#path-effect5254"
         sodipodi:nodetypes="csssc"
         id="path3867"
         d="m 419.89579,567.23439 c 1.42808,-4.3965 3.49166,-8.40649 6.06236,-11.98898 3.80135,-5.29751 8.71049,-9.65946 14.28474,-12.93441 11.14851,-6.5499 24.95015,-8.7459 37.89057,-5.39725 2.55316,0.66069 5.00632,1.5181 7.34879,2.55136 m -20.2021,-10.52866 c 3.71873,0.0119 7.4786,0.44549 11.19643,1.32927 13.27272,3.15514 24.23664,11.57266 31.19479,22.57829 3.86737,6.11699 6.50034,13.03567 7.62095,20.30455 m -8.66918,-11.46188 c 4.11068,9.64081 5.34252,20.78475 2.65878,31.79988 -3.17225,13.02018 -11.22521,23.38627 -21.79871,29.4431 -0.67108,0.38441 -1.35227,0.75146 -2.04296,1.10071 m 16.86171,-8.46368 c -3.03895,3.66648 -6.60381,6.81023 -10.5483,9.3591 -10.57365,6.83252 -23.87764,9.38749 -37.12703,6.25815 -11.17671,-2.63979 -20.66539,-8.97049 -27.17344,-17.40156 -1.66644,-2.15883 -3.13749,-4.4554 -4.39123,-6.8628 m 13.1705,13.60873 c -5.57628,-3.33113 -10.3275,-7.61913 -14.0634,-12.60785 -4.77188,-6.37212 -7.88807,-13.88663 -8.92089,-22.00767 m 4.64804,-24.44179 c 1.15958,-3.4761 2.84678,-6.73752 4.96506,-9.74463 3.67031,-5.21035 8.63518,-9.65767 14.41868,-13.1643 11.56698,-7.01326 26.41303,-10.26752 40.71135,-8.32275 2.13679,0.29063 4.21929,0.69041 6.24188,1.19106 m -22.88174,-1.1515 c 3.7203,0.0576 7.49707,0.5235 11.24461,1.42799 13.27025,3.20285 24.39025,11.44046 31.60169,22.1461 4.53304,6.72946 7.52723,14.4337 8.57942,22.46888 m -0.22537,-18.17718 c 4.14696,9.37492 5.2044,20.23896 2.3565,31.27233 -3.50195,13.56736 -12.2502,24.84812 -23.65041,32.27683 m 11.65241,-8.16799 c -3.24082,3.90269 -7.0821,7.20366 -11.35408,9.81182 -10.77379,6.57771 -24.28182,8.76073 -37.86669,4.98777 -11.45971,-3.18273 -21.29233,-10.18475 -28.26888,-19.4774 -0.97325,-1.29635 -1.89094,-2.63732 -2.74976,-4.01882 m 20.05387,15.65331 c -6.34148,-3.05992 -11.74492,-7.44867 -15.93767,-12.74717 -6.31323,-7.97818 -9.88395,-18.02411 -9.72918,-28.71352 m 1.01435,-15.01935 c 1.43736,-4.7624 3.67439,-9.12377 6.5389,-13.00577 3.82431,-5.18273 8.76535,-9.51163 14.38445,-12.81041 11.23819,-6.59757 25.18035,-9.07687 38.34779,-6.01821 2.70122,0.62746 5.29685,1.46909 7.77508,2.50313 m -23.66405,-7.98283 c 4.10951,0.10751 8.20686,0.63041 12.2033,1.60536 13.61275,3.32087 24.28647,11.4256 30.73393,21.9039 6.44747,10.4783 8.64737,23.32398 5.24187,36.01473 -0.004,0.0142 -0.008,0.0284 -0.0114,0.0426 m -1.37026,-19.73319 c 2.19809,7.69062 2.54997,16.07234 0.73713,24.59395 -2.94968,13.86551 -11.05818,25.47589 -21.5524,33.30901 -5.5582,4.14876 -11.7878,7.23907 -18.27393,9.06442 m 22.46308,-12.71992 c -0.19233,0.12502 -0.38539,0.24879 -0.57916,0.37132 -11.23938,7.10712 -24.86584,10.00117 -38.50968,7.41157 -11.50945,-2.18448 -21.35068,-7.97162 -28.4869,-15.71062 -0.0987,-0.10703 -0.19687,-0.21444 -0.29453,-0.32221 m 13.38429,7.82471 c -4.362,-3.07511 -8.23393,-6.78315 -11.48576,-10.97097 -5.2454,-6.7552 -8.8761,-14.75876 -10.36271,-23.35676 m 1.77181,-25.79747 c 1.20398,-3.48981 2.9236,-6.72678 5.06452,-9.67277 3.69678,-5.0869 8.64997,-9.30629 14.38993,-12.47074 11.47991,-6.3289 26.10916,-8.44362 40.12,-4.83104 7.47388,1.92707 14.24583,5.33746 20.07212,9.86097 m -22.66242,-10.38138 c 1.35584,0.23518 2.70572,0.51928 4.04611,0.85363 13.50888,3.36971 24.28168,11.38597 30.87438,21.63516 6.59271,10.24919 8.99546,22.73249 5.73182,34.82343 -1.24211,4.60171 -3.21478,8.81107 -5.77211,12.54236 m 5.68606,-26.29164 c 0.12597,4.38627 -0.30488,8.86282 -1.34667,13.34455 -3.16628,13.62131 -11.37787,24.71535 -22.04716,31.83879 -10.6693,7.12344 -23.80171,10.25396 -36.76382,8.06542 -2.16477,-0.3655 -4.26152,-0.86929 -6.2811,-1.49909 m 25.33048,-2.44356 c -6.96956,1.51329 -14.30939,1.47746 -21.55544,-0.3799 -10.9899,-2.817 -20.14873,-9.44812 -26.30099,-18.36995 -4.96472,-7.19968 -7.97297,-15.89176 -8.37321,-25.29432 m -4.36597,-21.65097 c 1.28961,-3.10476 2.93652,-6.00044 4.88535,-8.66811 3.87221,-5.30048 8.93644,-9.70084 14.75186,-13.04524 11.63085,-6.68879 26.25927,-9.14929 40.37456,-6.14549 7.51532,1.59929 14.35998,4.62065 20.32442,8.65996 m -21.9722,-7.9461 c 1.08426,0.17792 2.16429,0.39031 3.23819,0.63782 13.4484,3.09959 24.17287,11.25279 30.69417,21.82787 6.52129,10.57508 8.83431,23.58367 5.4121,36.32411 -1.12589,4.19156 -2.80257,8.09093 -4.93691,11.63961 m 7.98999,-26.04021 c 0.0523,4.2581 -0.45333,8.66504 -1.57948,13.11622 -3.3193,13.11973 -11.42195,24.10711 -21.90872,31.10039 -10.48676,6.99328 -23.34998,10.01086 -36.08557,7.30584 -1.99968,-0.42473 -3.94138,-0.98037 -5.81791,-1.65792 m 25.66601,4.18985 c -7.09978,1.44396 -14.65624,1.27132 -22.19952,-0.84241 -11.2301,-3.14682 -20.78058,-10.17671 -27.48518,-19.65363 -6.19656,-8.75881 -9.96265,-19.59996 -10.37768,-31.47477"
         style="fill:none;stroke:#ffffff;stroke-width:2;stroke-linecap:butt;stroke-linejoin:miter;stroke-miterlimit:4;stroke-opacity:1;marker-start:none;marker-end:none"
         inkscape:connector-curvature="0" />
      <path
         inkscape:original-d="m 402.32875,537.16943 15.2966,27.12701 25.08467,-11.18637"
         inkscape:path-effect="#path-effect5258"
         sodipodi:nodetypes="ccc"
         id="path5256"
         d="m 403.04043,543.09438 c 3.736,7.46101 7.62333,14.83731 11.60756,22.18542 5.46143,-2.30414 10.97496,-4.62344 16.51912,-6.93561 m -20.93278,-14.21316 c 3.58586,6.43709 7.14303,12.87392 10.65136,19.28773 7.63113,-3.69667 15.19885,-7.42321 22.67332,-11.21329 m -40.87622,-9.89386 c 4.56607,7.56791 9.11372,15.19992 13.70442,22.89681 6.22688,-2.57085 12.47824,-5.10481 18.78041,-7.60154 m -30.13229,-8.8535 c 3.49291,6.54516 7.19757,13.09625 11.07838,19.64666 5.46722,-2.41427 11.03961,-4.82893 16.70074,-7.24704 m -31.00461,-23.08619 c 4.8813,8.64179 9.73767,17.07544 14.62019,25.3877 7.62778,-3.29484 15.27478,-6.67891 22.97321,-10.09754"
         style="fill:none;stroke:#ffffff;stroke-width:1px;stroke-linecap:butt;stroke-linejoin:miter;stroke-opacity:1"
         inkscape:connector-curvature="0" />
    </g>
    <path
       style="fill:none;stroke:#000000;stroke-width:49.02687454000000145;stroke-miterlimit:4;stroke-opacity:1;stroke-dasharray:none"
       d="m -296.47399,522.94456 c -118.43284,0 -214.43129,96.0291 -214.43129,214.46194 0,118.43285 95.99845,214.46195 214.43129,214.46195 118.43283,0 214.431288,-96.0291 214.431288,-214.46195 0,-118.43284 -95.998458,-214.46194 -214.431288,-214.46194 z"
       id="path3647"
       inkscape:connector-curvature="0" />
    <text
       xml:space="preserve"
       style="font-size:650px;font-style:normal;font-variant:normal;font-weight:900;font-stretch:normal;text-align:start;line-height:125%;writing-mode:lr-tb;text-anchor:start;fill:#000000;fill-opacity:1;font-family:Orbitron;-inkscape-font-specification:Orbitron Heavy"
       x="-1106.5249"
       y="973.3053"
       id="text3706"
       sodipodi:linespacing="125%"><tspan
         sodipodi:role="line"
         id="tspan3708"
         x="-1106.5249"
         y="973.3053"
         style="font-size:650px;font-style:normal;font-variant:normal;font-weight:900;font-stretch:normal;text-align:start;line-height:125%;writing-mode:lr-tb;text-anchor:start;fill:#000000;fill-opacity:1;font-family:Orbitron;-inkscape-font-specification:Orbitron Heavy">M  B</tspan></text>
    <text
       xml:space="preserve"
       style="font-size:80px;font-style:normal;font-variant:normal;font-weight:900;font-stretch:normal;text-align:start;line-height:125%;writing-mode:lr-tb;text-anchor:start;fill:#000000;fill-opacity:1;stroke:none;font-family:Orbitron;-inkscape-font-specification:Orbitron Heavy"
       x="420.95544"
       y="351.03653"
       id="text4027"
       sodipodi:linespacing="125%"><tspan
         sodipodi:role="line"
         id="tspan4029"
         x="420.95544"
         y="351.03653">Software </tspan><tspan
         sodipodi:role="line"
         x="420.95544"
         y="451.03653"
         id="tspan3206">Craftsmanship </tspan><tspan
         sodipodi:role="line"
         x="420.95544"
         y="551.0365"
         id="tspan3208">  Mnster</tspan><tspan
         sodipodi:role="line"
         x="420.95544"
         y="651.0365"
         id="tspan3210">  Osnabrck </tspan><tspan
         sodipodi:role="line"
         x="420.95544"
         y="751.0365"
         id="tspan3212">  Bielefeld</tspan></text>
    <text
       xml:space="preserve"
       style="font-size:40px;font-style:normal;font-weight:normal;line-height:125%;letter-spacing:0px;word-spacing:0px;fill:#000000;fill-opacity:1;stroke:none;font-family:Sans"
       x="-1086.5249"
       y="465.58481"
       id="text3163"
       sodipodi:linespacing="125%"><tspan
         sodipodi:role="line"
         id="tspan3165"
         x="-1086.5249"
         y="465.58481"
         style="font-size:650px;font-style:normal;font-variant:normal;font-weight:900;font-stretch:normal;text-align:start;line-height:125%;writing-mode:lr-tb;text-anchor:start;font-family:Orbitron;-inkscape-font-specification:Orbitron Heavy"><tspan
           style="font-size:400px"
           id="tspan3167">SoCra</tspan></tspan></text>
    <flowRoot
       xml:space="preserve"
       id="flowRoot3169"
       style="font-size:40px;font-style:normal;font-weight:normal;line-height:125%;letter-spacing:0px;word-spacing:0px;fill:#000000;fill-opacity:1;stroke:none;font-family:Sans"
       transform="translate(-1096.5249,381.25369)"><flowRegion
         id="flowRegion3171"><rect
           id="rect3173"
           width="110.48544"
           height="497.18445"
           x="1507.0214"
           y="-145.34592" /></flowRegion><flowPara
         id="flowPara3175" /></flowRoot>    <text
       xml:space="preserve"
       style="font-size:40px;font-style:normal;font-weight:normal;line-height:125%;letter-spacing:0px;word-spacing:0px;fill:#000000;fill-opacity:1;stroke:none;font-family:Sans"
       x="918"
       y="252.05212"
       id="text3179"
       sodipodi:linespacing="125%"
       transform="translate(-1096.5249,381.25369)"><tspan
         sodipodi:role="line"
         id="tspan3181"
         x="918"
         y="252.05212" /></text>
  </g>
</svg>
